<svg width="28" height="23" viewBox="0 0 28 23" fill="none" xmlns="http://www.w3.org/2000/svg">
<g clip-path="url(#clip0_122_11)">
<path d="M21.5829 25.6361C21.5829 25.6361 18.6281 17.8974 13.6687 19.6533C8.70931 21.4092 11.7795 27.48 10.2604 24.8667" stroke="black" stroke-width="0.95625" stroke-miterlimit="10"/>
<path d="M11.5034 8.2477C11.1574 4.64109 9.12456 2.40337 6.10227 2.25323C3.07999 2.10308 1.72912 5.56962 2.18112 9.17183C2.65512 12.9493 4.16827 15.1759 7.36313 15.2513C10.0757 15.3154 11.8766 12.1399 11.5034 8.2477Z" stroke="black" stroke-width="0.95625" stroke-miterlimit="10"/>
<path d="M26.3272 8.14408C25.9812 4.53747 23.9483 2.29975 20.926 2.1496C17.9038 1.99946 16.5529 5.466 17.0049 9.06821C17.4789 12.8456 18.992 15.0722 22.1869 15.1477C24.8998 15.2118 26.7006 12.036 26.3272 8.14408Z" stroke="black" stroke-width="0.95625" stroke-miterlimit="10"/>
<path d="M10.9889 12.0391C10.9889 12.0391 9.38487 11.3573 7.25173 11.3987C5.11859 11.44 2.99632 12.4675 2.99632 12.4675" stroke="black" stroke-width="0.95625" stroke-miterlimit="10"/>
<path d="M25.9175 11.8649C25.9175 11.8649 24.3134 11.1832 22.1803 11.2245C20.0472 11.2659 17.9249 12.2934 17.9249 12.2934" stroke="black" stroke-width="0.95625" stroke-miterlimit="10"/>
<path d="M9.62515 9.84917L6.67199 8.80977L9.32886 7.52694C9.32886 7.52694 9.30771 4.67933 6.76943 4.55322C4.23086 4.42711 4.29687 7.9611 4.37345 8.7462C4.45002 9.5313 5.16229 11.6824 5.16229 11.6824C5.16229 11.6824 6.27688 11.3672 7.31973 11.4191C8.36259 11.4711 9.40573 11.5731 9.40573 11.5731L9.62515 9.84917Z" fill="black"/>
<path d="M24.5317 9.65328L21.5786 8.61389L24.2354 7.33106C24.2354 7.33106 24.2143 4.48345 21.676 4.35734C19.1377 4.23123 19.2034 7.76522 19.28 8.55032C19.3566 9.33516 20.0689 11.4866 20.0689 11.4866C20.0689 11.4866 21.1834 11.1713 22.2263 11.2232C23.2692 11.2752 24.3123 11.3772 24.3123 11.3772L24.5317 9.65328Z" fill="black"/>
<path d="M14.8746 12.7978C14.8746 12.7978 17.3363 13.2154 16.3186 15.1112C15.368 16.8817 13.2275 15.1963 13.0203 14.5616" stroke="black" stroke-width="0.95625" stroke-miterlimit="10"/>
</g>
<defs>
<clipPath id="clip0_122_11">
<rect width="28" height="23" fill="white"/>
</clipPath>
</defs>
</svg>
