<svg width="56" height="51" viewBox="0 0 56 51" fill="none" xmlns="http://www.w3.org/2000/svg">
<path d="M23.2756 41.0642C23.2756 41.0642 26.4431 43.6574 31.4145 42.9419C36.3858 42.2264 37.9709 40.4877 37.9709 40.4877" stroke="black" stroke-width="1.9125" stroke-miterlimit="10"/>
<path d="M38.5824 34.5498C38.5824 34.5498 36.6029 36.3161 37.1373 39.0864C38.0114 43.6184 43.0234 43.3586 43.4239 42.8742" stroke="black" stroke-width="1.9125" stroke-miterlimit="10"/>
<path d="M21.1809 35.2164C21.1809 35.2164 23.4984 36.536 23.4781 39.2844C23.4455 43.7805 18.3628 44.4667 17.8706 44.0786" stroke="black" stroke-width="1.9125" stroke-miterlimit="10"/>
<path d="M22.6473 17.9522C21.9661 10.1019 17.9639 5.23122 12.0138 4.90441C6.0637 4.5776 3.40419 12.123 4.29406 19.9637C5.22725 28.1857 8.20625 33.0322 14.4961 33.1965C19.8365 33.336 23.382 26.424 22.6473 17.9522Z" stroke="black" stroke-width="1.9125" stroke-miterlimit="10"/>
<path d="M51.8317 17.7267C51.1505 9.87644 47.1483 5.00576 41.1982 4.67895C35.248 4.35213 32.5885 11.8975 33.4784 19.7382C34.4116 27.9603 37.3906 32.8068 43.6805 32.971C49.0214 33.1105 52.5668 26.1979 51.8317 17.7267Z" stroke="black" stroke-width="1.9125" stroke-miterlimit="10"/>
<path d="M21.6344 26.2046C21.6344 26.2046 18.4765 24.7207 14.2769 24.8107C10.0773 24.9007 5.89905 27.1372 5.89905 27.1372" stroke="black" stroke-width="1.9125" stroke-miterlimit="10"/>
<path d="M51.0251 25.8254C51.0251 25.8254 47.8671 24.3415 43.6675 24.4315C39.4679 24.5215 35.2897 26.758 35.2897 26.758" stroke="black" stroke-width="1.9125" stroke-miterlimit="10"/>
<path d="M18.9495 21.4381L13.1355 19.1757L18.3662 16.3834C18.3662 16.3834 18.3245 10.1852 13.3273 9.91073C8.32946 9.63623 8.45943 17.3284 8.61018 19.0373C8.76093 20.7462 10.1632 25.4284 10.1632 25.4284C10.1632 25.4284 12.3576 24.7422 14.4107 24.8552C16.4638 24.9683 18.5175 25.1905 18.5175 25.1905L18.9495 21.4381Z" fill="black"/>
<path d="M48.2969 21.0116L42.4829 18.7493L47.7136 15.957C47.7136 15.957 47.6719 9.75884 42.6747 9.48434C37.6774 9.20984 37.8068 16.902 37.9576 18.6109C38.1083 20.3192 39.5106 25.002 39.5106 25.002C39.5106 25.002 41.7049 24.3158 43.7581 24.4288C45.8112 24.5419 47.8649 24.7641 47.8649 24.7641L48.2969 21.0116Z" fill="black"/>
<path d="M29.2844 27.8561C29.2844 27.8561 34.1309 28.7651 32.1273 32.8916C30.2559 36.7453 26.0416 33.0766 25.6338 31.6951" stroke="black" stroke-width="1.9125" stroke-miterlimit="10"/>
</svg>
