<svg width="543" height="108" viewBox="0 0 543 108" fill="none" xmlns="http://www.w3.org/2000/svg">
<path d="M16.32 37.1439C14.528 37.1439 12.72 36.9679 10.896 36.6159C9.10401 36.2319 7.44001 35.6879 5.90401 34.9839C4.40001 34.2479 3.18401 33.3679 2.25601 32.3439C1.32801 31.2879 0.864014 30.0719 0.864014 28.6959C0.864014 26.9359 1.42401 25.5279 2.54401 24.4719C3.66401 23.4159 4.97601 22.9199 6.48001 22.9839C7.66401 23.0159 8.84801 23.2719 10.032 23.7519C11.216 24.1999 12.416 24.6479 13.632 25.0959C14.88 25.5439 16.128 25.7679 17.376 25.7679C18.624 25.7679 19.488 25.6079 19.968 25.2879C20.448 24.9679 20.688 24.5359 20.688 23.9919C20.688 23.3519 20.352 22.8239 19.68 22.4079C19.008 21.9919 18.16 21.6719 17.136 21.4479L14.784 20.8719C12.352 20.2959 10.176 19.6559 8.25601 18.9519C6.33601 18.2159 4.81601 17.2559 3.69601 16.0719C2.60801 14.8559 2.06401 13.2399 2.06401 11.2239C2.06401 9.01594 2.67201 7.22394 3.88801 5.84794C5.10401 4.43994 6.75201 3.41594 8.83201 2.77594C10.912 2.13594 13.232 1.81594 15.792 1.81594C18.416 1.81594 20.72 2.08794 22.704 2.63194C24.688 3.17594 26.224 3.95994 27.312 4.98394C28.432 6.00794 28.992 7.25594 28.992 8.72794C28.992 10.2959 28.56 11.5279 27.696 12.4239C26.864 13.2879 25.744 13.7199 24.336 13.7199C23.408 13.7199 22.432 13.5599 21.408 13.2399C20.416 12.9199 19.36 12.6159 18.24 12.3279C17.152 12.0079 15.984 11.8479 14.736 11.8479C13.616 11.8479 12.768 12.0239 12.192 12.3759C11.616 12.6959 11.328 13.1279 11.328 13.6719C11.328 14.3439 11.712 14.8399 12.48 15.1599C13.248 15.4799 14.512 15.8639 16.272 16.3119L18.96 16.9359C21.168 17.4799 23.104 18.1359 24.768 18.9039C26.432 19.6719 27.728 20.6799 28.656 21.9279C29.584 23.1759 30.048 24.8079 30.048 26.8239C30.048 29.2559 29.472 31.2399 28.32 32.7759C27.168 34.2799 25.568 35.3839 23.52 36.0879C21.472 36.7919 19.072 37.1439 16.32 37.1439Z" fill="black"/>
<path d="M42.2666 36.9999C40.0266 36.9999 38.2026 36.1519 36.7946 34.4559C35.3866 32.7599 34.6666 30.3759 34.6346 27.3039L34.5866 16.2159C34.5866 14.8399 35.0026 13.7679 35.8346 12.9999C36.6986 12.1999 37.8666 11.7999 39.3386 11.7999C40.7466 11.7999 41.8826 12.1999 42.7466 12.9999C43.6106 13.7679 44.0426 14.8399 44.0426 16.2159V26.2479C44.0426 28.6479 44.9866 29.8479 46.8746 29.8479C47.8026 29.8479 48.4266 29.5119 48.7466 28.8399C49.0666 28.1359 49.2266 27.2399 49.2266 26.1519V16.2159C49.2266 14.9679 49.6586 13.9279 50.5226 13.0959C51.3866 12.2319 52.5066 11.7999 53.8826 11.7999C55.3226 11.7999 56.4266 12.2319 57.1946 13.0959C57.9946 13.9279 58.3946 14.9679 58.3946 16.2159V31.9599C58.3946 33.4959 58.0426 34.7279 57.3386 35.6559C56.6666 36.5519 55.5626 36.9999 54.0266 36.9999C52.5226 36.9999 51.3386 36.5519 50.4746 35.6559C49.6426 34.7279 49.2266 33.4959 49.2266 31.9599V31.1439H48.3626C48.3626 32.9999 47.8026 34.4399 46.6826 35.4639C45.5946 36.4879 44.1226 36.9999 42.2666 36.9999Z" fill="black"/>
<path d="M80.2755 36.9999C78.5155 36.9999 77.0435 36.4559 75.8595 35.3679C74.7075 34.2799 73.9715 32.8719 73.6515 31.1439H72.7875V42.1839C72.7875 43.4959 72.4195 44.5999 71.6835 45.4959C70.9475 46.4239 69.8275 46.8879 68.3235 46.8879C66.8835 46.8879 65.7635 46.4239 64.9635 45.4959C64.1955 44.5999 63.8115 43.4639 63.8115 42.0879V24.1359C63.8115 22.5359 63.7475 21.1919 63.6195 20.1039C63.5235 18.9839 63.4275 17.9759 63.3315 17.0799C63.2035 15.7359 63.4755 14.5999 64.1475 13.6719C64.8195 12.7119 65.9075 12.1359 67.4115 11.9439C69.3635 11.6879 70.7395 12.0399 71.5395 12.9999C72.3715 13.9279 72.7875 15.3839 72.7875 17.3679V19.6719L72.9795 19.7199C73.1395 18.4719 73.5075 17.2559 74.0835 16.0719C74.6915 14.8559 75.5395 13.8639 76.6275 13.0959C77.7155 12.2959 79.0915 11.8959 80.7555 11.8959C83.5395 11.8959 85.6035 13.0159 86.9475 15.2559C88.3235 17.4639 89.0115 20.4239 89.0115 24.1359C89.0115 32.7119 86.0995 36.9999 80.2755 36.9999ZM72.5955 24.0399C72.5955 24.5519 72.6595 24.9519 72.7875 25.2399C72.9795 25.8479 73.3795 26.2959 73.9875 26.5839C74.6275 26.8399 75.5715 26.9679 76.8195 26.9679C78.4195 26.9679 79.5075 26.7279 80.0835 26.2479C80.6915 25.7679 80.9955 25.0319 80.9955 24.0399C80.9955 23.0159 80.7075 22.2799 80.1315 21.8319C79.5555 21.3519 78.4675 21.1119 76.8675 21.1119C75.5875 21.1119 74.6275 21.2559 73.9875 21.5439C73.3795 21.7999 72.9795 22.2319 72.7875 22.8399C72.6595 23.1279 72.5955 23.5279 72.5955 24.0399Z" fill="black"/>
<path d="M110.801 36.9999C109.041 36.9999 107.569 36.4559 106.385 35.3679C105.233 34.2799 104.497 32.8719 104.177 31.1439H103.313V42.1839C103.313 43.4959 102.945 44.5999 102.209 45.4959C101.473 46.4239 100.353 46.8879 98.8485 46.8879C97.4085 46.8879 96.2885 46.4239 95.4885 45.4959C94.7205 44.5999 94.3365 43.4639 94.3365 42.0879V24.1359C94.3365 22.5359 94.2725 21.1919 94.1445 20.1039C94.0485 18.9839 93.9525 17.9759 93.8565 17.0799C93.7285 15.7359 94.0005 14.5999 94.6725 13.6719C95.3445 12.7119 96.4325 12.1359 97.9365 11.9439C99.8885 11.6879 101.265 12.0399 102.065 12.9999C102.897 13.9279 103.313 15.3839 103.313 17.3679V19.6719L103.505 19.7199C103.665 18.4719 104.033 17.2559 104.609 16.0719C105.217 14.8559 106.065 13.8639 107.153 13.0959C108.241 12.2959 109.617 11.8959 111.281 11.8959C114.065 11.8959 116.129 13.0159 117.473 15.2559C118.849 17.4639 119.537 20.4239 119.537 24.1359C119.537 32.7119 116.625 36.9999 110.801 36.9999ZM103.121 24.0399C103.121 24.5519 103.185 24.9519 103.313 25.2399C103.505 25.8479 103.905 26.2959 104.513 26.5839C105.153 26.8399 106.097 26.9679 107.345 26.9679C108.945 26.9679 110.033 26.7279 110.609 26.2479C111.217 25.7679 111.521 25.0319 111.521 24.0399C111.521 23.0159 111.233 22.2799 110.657 21.8319C110.081 21.3519 108.993 21.1119 107.393 21.1119C106.113 21.1119 105.153 21.2559 104.513 21.5439C103.905 21.7999 103.505 22.2319 103.313 22.8399C103.185 23.1279 103.121 23.5279 103.121 24.0399Z" fill="black"/>
<path d="M135.961 37.0959C132.217 37.0959 129.225 35.9919 126.985 33.7839C124.777 31.5439 123.673 28.3919 123.673 24.3279C123.673 21.8319 124.185 19.6399 125.209 17.7519C126.233 15.8639 127.657 14.3919 129.481 13.3359C131.337 12.2479 133.497 11.7039 135.961 11.7039C138.713 11.7039 141.001 12.2479 142.825 13.3359C144.649 14.3919 146.009 15.8639 146.905 17.7519C147.833 19.6399 148.297 21.8319 148.297 24.3279C148.297 28.3919 147.273 31.5439 145.225 33.7839C143.209 35.9919 140.121 37.0959 135.961 37.0959ZM129.385 23.5119C129.385 24.5039 129.881 25.2079 130.873 25.6239C131.865 26.0079 133.561 26.1999 135.961 26.1999C138.361 26.1999 140.057 26.0079 141.049 25.6239C142.041 25.2079 142.537 24.5039 142.537 23.5119C142.537 22.5519 142.041 21.8799 141.049 21.4959C140.057 21.1119 138.361 20.9199 135.961 20.9199C133.561 20.9199 131.865 21.1119 130.873 21.4959C129.881 21.8799 129.385 22.5519 129.385 23.5119Z" fill="black"/>
<path d="M157.782 36.9999C156.278 36.9999 155.11 36.5679 154.278 35.7039C153.446 34.8399 153.03 33.7519 153.03 32.4399V16.6959C153.03 15.3199 153.446 14.1839 154.278 13.2879C155.11 12.3599 156.278 11.8959 157.782 11.8959C159.286 11.8959 160.438 12.3599 161.238 13.2879C162.038 14.1839 162.438 15.2879 162.438 16.5999V17.6079H163.35C163.478 15.9119 164.118 14.5199 165.27 13.4319C166.422 12.3439 167.782 11.7999 169.35 11.7999C170.918 11.7999 172.15 12.2799 173.046 13.2399C173.974 14.1999 174.438 15.4799 174.438 17.0799C174.438 18.5839 174.006 19.8319 173.142 20.8239C172.278 21.8159 171.174 22.3119 169.83 22.3119C168.71 22.3119 167.766 22.0559 166.998 21.5439C166.262 20.9999 165.718 20.3759 165.366 19.6719C164.342 19.5439 163.59 19.6559 163.11 20.0079C162.662 20.3279 162.438 20.9839 162.438 21.9759V32.4399C162.438 33.7519 162.038 34.8399 161.238 35.7039C160.438 36.5679 159.286 36.9999 157.782 36.9999Z" fill="black"/>
<path d="M192.882 37.1439C191.186 37.1439 189.65 36.7599 188.274 35.9919C186.93 35.2239 185.874 34.1359 185.106 32.7279C184.338 31.2879 183.954 29.6079 183.954 27.6879V19.2399L182.178 19.4799C181.218 19.6079 180.37 19.2719 179.634 18.4719C178.898 17.6719 178.53 16.6639 178.53 15.4479C178.53 14.2319 178.898 13.2399 179.634 12.4719C180.37 11.6719 181.218 11.3359 182.178 11.4639L183.954 11.7039L183.906 8.43994C183.874 7.15994 184.242 6.15194 185.01 5.41594C185.778 4.64794 186.898 4.26394 188.37 4.26394C189.842 4.26394 190.978 4.64794 191.778 5.41594C192.578 6.15194 192.946 7.15994 192.882 8.43994L192.786 11.7039L195.33 11.3679C197.058 11.1119 198.37 11.4319 199.266 12.3279C200.162 13.1919 200.61 14.2319 200.61 15.4479C200.61 16.6639 200.162 17.7199 199.266 18.6159C198.402 19.4799 197.138 19.7999 195.474 19.5759L192.786 19.2399V26.3919C192.786 26.8079 192.93 27.1919 193.218 27.5439C193.506 27.8639 193.858 27.9599 194.274 27.8319C194.754 27.7039 195.25 27.4319 195.762 27.0159C196.306 26.5999 196.994 26.3919 197.826 26.3919C199.074 26.3919 200.034 26.8399 200.706 27.7359C201.378 28.6319 201.714 29.7359 201.714 31.0479C201.714 32.0719 201.346 33.0639 200.61 34.0239C199.906 34.9519 198.898 35.7039 197.586 36.2799C196.274 36.8559 194.706 37.1439 192.882 37.1439Z" fill="black"/>
<path d="M205.592 6.32794C205.592 4.95194 206.008 3.84794 206.84 3.01594C207.704 2.15194 208.888 1.71994 210.392 1.71994C211.992 1.71994 213.176 2.13594 213.944 2.96794C214.744 3.79994 215.144 4.90394 215.144 6.27994C215.144 7.62394 214.744 8.71194 213.944 9.54394C213.176 10.3439 211.992 10.7439 210.392 10.7439C208.824 10.7439 207.624 10.3439 206.792 9.54394C205.992 8.71194 205.592 7.63994 205.592 6.32794ZM210.392 36.9999C208.888 36.9999 207.768 36.5839 207.032 35.7519C206.296 34.9199 205.928 33.8799 205.928 32.6319V16.2159C205.928 14.8399 206.296 13.7519 207.032 12.9519C207.768 12.1519 208.888 11.7519 210.392 11.7519C211.896 11.7519 213.016 12.1519 213.752 12.9519C214.52 13.7519 214.904 14.8079 214.904 16.1199V32.6319C214.904 33.8799 214.504 34.9199 213.704 35.7519C212.936 36.5839 211.832 36.9999 210.392 36.9999Z" fill="black"/>
<path d="M224.605 36.9999C223.197 36.9999 222.061 36.5839 221.197 35.7519C220.365 34.8879 219.949 33.8319 219.949 32.5839V16.6959C219.949 15.3519 220.349 14.2159 221.149 13.2879C221.949 12.3599 223.101 11.8959 224.605 11.8959C226.077 11.8959 227.197 12.3599 227.965 13.2879C228.733 14.2159 229.117 15.3839 229.117 16.7919V19.1919H229.981C229.981 17.3679 230.301 15.9279 230.941 14.8719C231.613 13.8159 232.461 13.0639 233.485 12.6159C234.509 12.1359 235.533 11.8959 236.557 11.8959C239.021 11.8959 240.829 12.7919 241.981 14.5839C243.133 16.3439 243.709 18.8559 243.709 22.1199V32.5839C243.709 33.8319 243.293 34.8879 242.461 35.7519C241.629 36.5839 240.509 36.9999 239.101 36.9999C237.661 36.9999 236.509 36.5839 235.645 35.7519C234.813 34.8879 234.397 33.8319 234.397 32.5839V24.0879C234.397 22.9359 234.173 22.0399 233.725 21.3999C233.309 20.7599 232.685 20.4399 231.853 20.4399C230.893 20.4399 230.189 20.7919 229.741 21.4959C229.325 22.1999 229.117 23.0959 229.117 24.1839V32.5839C229.117 33.8319 228.717 34.8879 227.917 35.7519C227.117 36.5839 226.013 36.9999 224.605 36.9999Z" fill="black"/>
<path d="M259.783 46.8879C257.831 46.8879 256.167 46.6799 254.791 46.2639C253.447 45.8479 252.151 45.2079 250.903 44.3439C249.815 43.5759 249.047 42.5039 248.599 41.1279C248.151 39.7519 248.375 38.3599 249.271 36.9519C249.847 36.0879 250.487 35.4959 251.191 35.1759C251.927 34.8559 252.631 34.7279 253.303 34.7919C254.007 34.8239 254.615 34.9679 255.127 35.2239C256.247 35.7679 257.111 36.1679 257.719 36.4239C258.359 36.6479 259.079 36.7599 259.879 36.7599C261.063 36.7599 262.055 36.3439 262.855 35.5119C263.687 34.6799 264.103 33.5119 264.103 32.0079V28.1199H263.239C263.015 29.8159 262.359 31.1599 261.271 32.1519C260.215 33.1119 258.759 33.5919 256.903 33.5919C255.495 33.5919 254.119 33.2399 252.775 32.5359C251.431 31.8319 250.327 30.7119 249.463 29.1759C248.599 27.6399 248.167 25.6079 248.167 23.0799C248.167 19.3679 248.983 16.5999 250.615 14.7759C252.247 12.9519 254.359 12.0399 256.951 12.0399C258.743 12.0399 260.279 12.6479 261.559 13.8639C262.839 15.0479 263.479 16.7119 263.479 18.8559L263.623 18.8079V16.1199C263.623 14.9999 263.975 14.0239 264.679 13.1919C265.415 12.3279 266.551 11.8959 268.087 11.8959C269.719 11.8959 270.887 12.3279 271.591 13.1919C272.327 14.0239 272.695 14.9999 272.695 16.1199L272.743 31.2399C272.775 34.5679 272.359 37.3999 271.495 39.7359C270.663 42.0719 269.287 43.8479 267.367 45.0639C265.479 46.2799 262.951 46.8879 259.783 46.8879ZM256.231 22.2639C256.231 23.9919 257.383 24.8559 259.687 24.8559C261.191 24.8559 262.247 24.6479 262.855 24.2319C263.463 23.8159 263.767 23.1599 263.767 22.2639C263.767 21.3359 263.447 20.6959 262.807 20.3439C262.199 19.9919 261.143 19.8159 259.639 19.8159C258.551 19.8159 257.703 19.9919 257.095 20.3439C256.519 20.6959 256.231 21.3359 256.231 22.2639Z" fill="black"/>
<path d="M288.842 6.71194C288.842 5.23994 289.29 4.10394 290.186 3.30394C291.114 2.47194 292.298 2.05594 293.738 2.05594C295.242 2.05594 296.442 2.47194 297.338 3.30394C298.234 4.10394 298.682 5.23994 298.682 6.71194V27.1599C298.682 27.7679 298.842 28.1999 299.162 28.4559C299.482 28.6799 300.01 28.5839 300.746 28.1679C302.346 27.2399 303.77 26.5039 305.018 25.9599C306.266 25.3839 307.642 25.0959 309.146 25.0959C311.226 25.0959 312.794 25.6399 313.85 26.7279C314.906 27.8159 315.434 29.2399 315.434 30.9999C315.434 32.8879 314.858 34.3439 313.706 35.3679C312.586 36.3919 310.778 36.9039 308.282 36.9039H298.394C296.282 36.9039 294.522 36.6639 293.114 36.1839C291.706 35.6719 290.634 34.7599 289.898 33.4479C289.194 32.1359 288.842 30.2319 288.842 27.7359V6.71194Z" fill="black"/>
<path d="M331.176 37.0959C327.432 37.0959 324.44 35.9919 322.2 33.7839C319.992 31.5439 318.888 28.3919 318.888 24.3279C318.888 21.8319 319.4 19.6399 320.424 17.7519C321.448 15.8639 322.872 14.3919 324.696 13.3359C326.552 12.2479 328.712 11.7039 331.176 11.7039C333.928 11.7039 336.216 12.2479 338.04 13.3359C339.864 14.3919 341.224 15.8639 342.12 17.7519C343.048 19.6399 343.512 21.8319 343.512 24.3279C343.512 28.3919 342.488 31.5439 340.44 33.7839C338.424 35.9919 335.336 37.0959 331.176 37.0959ZM324.6 23.5119C324.6 24.5039 325.096 25.2079 326.088 25.6239C327.08 26.0079 328.776 26.1999 331.176 26.1999C333.576 26.1999 335.272 26.0079 336.264 25.6239C337.256 25.2079 337.752 24.5039 337.752 23.5119C337.752 22.5519 337.256 21.8799 336.264 21.4959C335.272 21.1119 333.576 20.9199 331.176 20.9199C328.776 20.9199 327.08 21.1119 326.088 21.4959C325.096 21.8799 324.6 22.5519 324.6 23.5119Z" fill="black"/>
<path d="M360.582 37.1439C358.086 37.1439 355.878 36.6319 353.958 35.6079C352.038 34.5519 350.534 33.0639 349.446 31.1439C348.358 29.2239 347.814 26.9679 347.814 24.3759C347.814 21.7839 348.358 19.5279 349.446 17.6079C350.534 15.6879 352.038 14.1999 353.958 13.1439C355.91 12.0879 358.15 11.5599 360.678 11.5599C362.662 11.5599 364.406 11.7679 365.91 12.1839C367.446 12.5999 368.646 13.2239 369.51 14.0559C370.406 14.8879 370.854 15.9279 370.854 17.1759C370.854 18.6799 370.47 19.8639 369.702 20.7279C368.934 21.5599 367.83 21.9759 366.39 21.9759C365.43 21.9759 364.47 21.8319 363.51 21.5439C362.582 21.2559 361.382 21.1119 359.91 21.1119C358.694 21.1119 357.67 21.3039 356.838 21.6879C356.006 22.0719 355.59 22.7759 355.59 23.7999C355.59 24.8559 356.006 25.6239 356.838 26.1039C357.67 26.5519 358.694 26.7759 359.91 26.7759C360.902 26.7759 361.734 26.6799 362.406 26.4879C363.078 26.2959 363.718 26.1039 364.326 25.9119C364.934 25.7199 365.622 25.6239 366.39 25.6239C368.022 25.6239 369.222 26.1039 369.99 27.0639C370.79 27.9919 371.19 29.1919 371.19 30.6639C371.19 31.9119 370.726 33.0319 369.798 34.0239C368.87 34.9839 367.606 35.7519 366.006 36.3279C364.406 36.8719 362.598 37.1439 360.582 37.1439Z" fill="black"/>
<path d="M382.125 36.9999C379.757 36.9999 377.901 36.3599 376.557 35.0799C375.245 33.7999 374.589 32.0079 374.589 29.7039C374.589 27.3999 375.357 25.7359 376.893 24.7119C378.429 23.6559 380.397 23.1279 382.797 23.1279C384.205 23.1279 385.485 23.2239 386.637 23.4159C387.789 23.6079 388.829 23.8799 389.757 24.2319H389.901V23.5119C389.901 22.7759 389.629 22.1999 389.085 21.7839C388.541 21.3359 387.853 21.1279 387.021 21.1599C386.221 21.1599 385.533 21.2079 384.957 21.3039C384.413 21.3999 383.725 21.5599 382.893 21.7839C381.357 22.1679 380.029 22.1359 378.909 21.6879C377.789 21.2399 377.021 20.3599 376.605 19.0479C376.221 17.6719 376.301 16.5199 376.845 15.5919C377.421 14.6639 378.285 13.9439 379.437 13.4319C380.429 12.9519 381.533 12.5519 382.749 12.2319C383.997 11.9119 385.341 11.7519 386.781 11.7519C390.973 11.7519 394.045 12.7759 395.997 14.8239C397.981 16.8399 398.973 20.2319 398.973 24.9999V32.4399C398.973 33.7519 398.573 34.8399 397.773 35.7039C396.973 36.5679 395.869 36.9999 394.461 36.9999C392.925 36.9999 391.773 36.5679 391.005 35.7039C390.269 34.8399 389.901 33.7839 389.901 32.5359V31.4319H388.941C388.941 32.2639 388.781 33.1119 388.461 33.9759C388.173 34.8399 387.549 35.5599 386.589 36.1359C385.661 36.7119 384.173 36.9999 382.125 36.9999ZM382.605 26.4879C382.605 27.0319 382.797 27.4159 383.181 27.6399C383.597 27.8639 384.477 27.9759 385.821 27.9759C387.037 27.9759 387.885 27.8639 388.365 27.6399C388.845 27.4159 389.085 27.0319 389.085 26.4879C389.085 25.9759 388.845 25.6239 388.365 25.4319C387.885 25.2079 387.037 25.0959 385.821 25.0959C384.477 25.0959 383.597 25.2079 383.181 25.4319C382.797 25.6239 382.605 25.9759 382.605 26.4879Z" fill="black"/>
<path d="M408.371 36.9999C406.803 36.9999 405.619 36.5839 404.819 35.7519C404.051 34.9199 403.667 33.8799 403.667 32.6319V4.79194C403.667 3.41594 404.051 2.27994 404.819 1.38394C405.619 0.455943 406.803 -0.00805664 408.371 -0.00805664C409.779 -0.00805664 410.867 0.455943 411.635 1.38394C412.403 2.27994 412.787 3.38394 412.787 4.69594V32.6319C412.787 33.8799 412.403 34.9199 411.635 35.7519C410.867 36.5839 409.779 36.9999 408.371 36.9999Z" fill="black"/>
<path d="M419.666 41.8479C419.666 41.0479 419.938 40.4079 420.482 39.9279C421.026 39.4799 421.874 39.2559 423.026 39.2559C423.922 39.2559 424.722 39.2719 425.426 39.3039C426.162 39.3359 426.642 39.3519 426.866 39.3519L426.482 37.2399C426.322 37.3359 425.986 37.4639 425.474 37.6239C424.962 37.8159 424.226 37.9119 423.266 37.9119C421.698 37.9119 420.322 37.4479 419.138 36.5199C417.986 35.5599 417.41 34.2159 417.41 32.4879C417.41 30.7599 417.97 29.3679 419.09 28.3119C420.21 27.2239 421.65 26.6799 423.41 26.6799C425.17 26.6799 426.594 27.1759 427.682 28.1679C428.802 29.1599 429.362 30.7439 429.362 32.9199C429.362 34.0719 429.298 35.3199 429.17 36.6639C429.074 38.0079 428.818 39.2719 428.402 40.4559C427.986 41.6399 427.346 42.5999 426.482 43.3359C425.65 44.1039 424.498 44.4879 423.026 44.4879C421.874 44.4879 421.026 44.2479 420.482 43.7679C419.938 43.2879 419.666 42.6479 419.666 41.8479Z" fill="black"/>
<path d="M28.065 107.144C24.641 107.144 21.745 106.392 19.377 104.888C17.009 103.384 15.217 101.304 14.001 98.6479C12.785 95.9919 12.177 92.9359 12.177 89.4799C12.177 86.0559 12.785 83.0159 14.001 80.3599C15.217 77.6719 17.009 75.5759 19.377 74.0719C21.745 72.5359 24.641 71.7679 28.065 71.7679C31.489 71.7679 34.369 72.5359 36.705 74.0719C39.073 75.5759 40.865 77.6719 42.081 80.3599C43.297 83.0159 43.905 86.0559 43.905 89.4799C43.905 92.9359 43.297 95.9919 42.081 98.6479C40.865 101.304 39.073 103.384 36.705 104.888C34.369 106.392 31.489 107.144 28.065 107.144ZM18.225 88.7119C18.225 89.7039 18.465 90.6479 18.945 91.5439C19.425 92.4079 20.369 93.1119 21.777 93.6559C23.185 94.1679 25.281 94.4239 28.065 94.4239C30.849 94.4239 32.929 94.1679 34.305 93.6559C35.713 93.1119 36.657 92.4079 37.137 91.5439C37.617 90.6479 37.857 89.7039 37.857 88.7119C37.857 87.6879 37.617 86.7759 37.137 85.9759C36.657 85.1439 35.713 84.4879 34.305 84.0079C32.929 83.4959 30.849 83.2399 28.065 83.2399C25.281 83.2399 23.185 83.4959 21.777 84.0079C20.369 84.4879 19.425 85.1439 18.945 85.9759C18.465 86.7759 18.225 87.6879 18.225 88.7119Z" fill="black"/>
<path d="M53.2676 107C51.8596 107 50.7236 106.584 49.8596 105.752C49.0276 104.888 48.6116 103.832 48.6116 102.584V86.6959C48.6116 85.3519 49.0116 84.2159 49.8116 83.2879C50.6116 82.3599 51.7636 81.8959 53.2676 81.8959C54.7396 81.8959 55.8596 82.3599 56.6276 83.2879C57.3956 84.2159 57.7796 85.3839 57.7796 86.7919V89.1919H58.6436C58.6436 87.3679 58.9636 85.9279 59.6036 84.8719C60.2756 83.8159 61.1236 83.0639 62.1476 82.6159C63.1716 82.1359 64.1956 81.8959 65.2196 81.8959C67.6836 81.8959 69.4916 82.7919 70.6436 84.5839C71.7956 86.3439 72.3716 88.8559 72.3716 92.1199V102.584C72.3716 103.832 71.9556 104.888 71.1236 105.752C70.2916 106.584 69.1716 107 67.7636 107C66.3236 107 65.1716 106.584 64.3076 105.752C63.4756 104.888 63.0596 103.832 63.0596 102.584V94.0879C63.0596 92.9359 62.8356 92.0399 62.3876 91.3999C61.9716 90.7599 61.3476 90.4399 60.5156 90.4399C59.5556 90.4399 58.8516 90.7919 58.4036 91.4959C57.9876 92.1999 57.7796 93.0959 57.7796 94.1839V102.584C57.7796 103.832 57.3796 104.888 56.5796 105.752C55.7796 106.584 54.6756 107 53.2676 107Z" fill="black"/>
<path d="M77.0696 94.5199C77.0696 91.9919 77.5656 89.7679 78.5576 87.8479C79.5816 85.9279 81.0216 84.4239 82.8776 83.3359C84.7656 82.2479 87.0056 81.7039 89.5976 81.7039C91.6136 81.7039 93.4216 82.0719 95.0216 82.8079C96.6536 83.5439 97.9336 84.5359 98.8616 85.7839C99.7896 86.9999 100.254 88.3439 100.254 89.8159C100.254 91.3519 99.8056 92.4399 98.9096 93.0799C98.0136 93.7199 96.6856 94.0399 94.9256 94.0399H84.8456C84.8456 94.8719 85.1656 95.5599 85.8056 96.1039C86.4776 96.6479 87.5976 96.9199 89.1656 96.9199C89.9656 96.9199 90.7016 96.8399 91.3736 96.6799C92.0776 96.5199 92.7816 96.3759 93.4856 96.2479C94.2216 96.0879 95.0376 96.0079 95.9336 96.0079C97.2136 96.0079 98.2696 96.4719 99.1016 97.3999C99.9336 98.2959 100.35 99.5439 100.35 101.144C100.35 103.032 99.3736 104.504 97.4216 105.56C95.5016 106.616 92.9736 107.144 89.8376 107.144C87.6296 107.144 85.5496 106.712 83.5976 105.848C81.6776 104.984 80.1096 103.624 78.8936 101.768C77.6776 99.8799 77.0696 97.4639 77.0696 94.5199ZM92.6216 92.4559C93.1016 92.4559 93.2616 92.2319 93.1016 91.7839C92.9736 91.3359 92.5896 90.8719 91.9496 90.3919C91.3096 89.9119 90.3816 89.6719 89.1656 89.6719C87.7576 89.6719 86.7016 89.9759 85.9976 90.5839C85.3256 91.1919 84.9896 91.8159 84.9896 92.4559H92.6216Z" fill="black"/>
<path d="M121.088 107C119.424 107 118.192 106.504 117.392 105.512C116.592 104.52 116.192 103.192 116.192 101.528V79.1599C116.192 76.7279 116.848 74.9359 118.16 73.7839C119.504 72.6319 121.104 72.0559 122.96 72.0559C124.72 72.0559 126.208 72.6319 127.424 73.7839C128.672 74.9359 129.584 76.7599 130.16 79.2559L133.904 95.5279H135.152L138.896 79.2559C139.472 76.7599 140.384 74.9359 141.632 73.7839C142.912 72.6319 144.432 72.0559 146.192 72.0559C148.048 72.0559 149.632 72.6319 150.944 73.7839C152.288 74.9359 152.96 76.7279 152.96 79.1599V101.528C152.96 103.192 152.544 104.52 151.712 105.512C150.912 106.504 149.68 107 148.016 107C146.416 107 145.184 106.504 144.32 105.512C143.456 104.52 143.024 103.192 143.024 101.528V88.6159C143.024 88.2959 142.976 88.0079 142.88 87.7519C142.816 87.4639 142.608 87.3199 142.256 87.3199C141.968 87.3199 141.76 87.4639 141.632 87.7519C141.504 88.0079 141.408 88.2959 141.344 88.6159L139.52 100.712C139.296 102.024 139.024 103.16 138.704 104.12C138.416 105.048 137.952 105.768 137.312 106.28C136.672 106.76 135.744 107 134.528 107C133.344 107 132.416 106.76 131.744 106.28C131.104 105.768 130.624 105.048 130.304 104.12C130.016 103.16 129.776 102.024 129.584 100.712L127.712 88.6159C127.68 88.2959 127.6 88.0079 127.472 87.7519C127.344 87.4639 127.12 87.3199 126.8 87.3199C126.48 87.3199 126.272 87.4639 126.176 87.7519C126.08 88.0079 126.032 88.2959 126.032 88.6159V101.528C126.032 103.192 125.6 104.52 124.736 105.512C123.904 106.504 122.688 107 121.088 107Z" fill="black"/>
<path d="M165.3 107C162.932 107 161.076 106.36 159.732 105.08C158.42 103.8 157.764 102.008 157.764 99.7039C157.764 97.3999 158.532 95.7359 160.068 94.7119C161.604 93.6559 163.572 93.1279 165.972 93.1279C167.38 93.1279 168.66 93.2239 169.812 93.4159C170.964 93.6079 172.004 93.8799 172.932 94.2319H173.076V93.5119C173.076 92.7759 172.804 92.1999 172.26 91.7839C171.716 91.3359 171.028 91.1279 170.196 91.1599C169.396 91.1599 168.708 91.2079 168.132 91.3039C167.588 91.3999 166.9 91.5599 166.068 91.7839C164.532 92.1679 163.204 92.1359 162.084 91.6879C160.964 91.2399 160.196 90.3599 159.78 89.0479C159.396 87.6719 159.476 86.5199 160.02 85.5919C160.596 84.6639 161.46 83.9439 162.612 83.4319C163.604 82.9519 164.708 82.5519 165.924 82.2319C167.172 81.9119 168.516 81.7519 169.956 81.7519C174.148 81.7519 177.22 82.7759 179.172 84.8239C181.156 86.8399 182.148 90.2319 182.148 94.9999V102.44C182.148 103.752 181.748 104.84 180.948 105.704C180.148 106.568 179.044 107 177.636 107C176.1 107 174.948 106.568 174.18 105.704C173.444 104.84 173.076 103.784 173.076 102.536V101.432H172.116C172.116 102.264 171.956 103.112 171.636 103.976C171.348 104.84 170.724 105.56 169.764 106.136C168.836 106.712 167.348 107 165.3 107ZM165.78 96.4879C165.78 97.0319 165.972 97.4159 166.356 97.6399C166.772 97.8639 167.652 97.9759 168.996 97.9759C170.212 97.9759 171.06 97.8639 171.54 97.6399C172.02 97.4159 172.26 97.0319 172.26 96.4879C172.26 95.9759 172.02 95.6239 171.54 95.4319C171.06 95.2079 170.212 95.0959 168.996 95.0959C167.652 95.0959 166.772 95.2079 166.356 95.4319C165.972 95.6239 165.78 95.9759 165.78 96.4879Z" fill="black"/>
<path d="M191.786 107C190.282 107 189.114 106.568 188.282 105.704C187.45 104.84 187.034 103.752 187.034 102.44V86.6959C187.034 85.3199 187.45 84.1839 188.282 83.2879C189.114 82.3599 190.282 81.8959 191.786 81.8959C193.29 81.8959 194.442 82.3599 195.242 83.2879C196.042 84.1839 196.442 85.2879 196.442 86.5999V87.6079H197.354C197.482 85.9119 198.122 84.5199 199.274 83.4319C200.426 82.3439 201.786 81.7999 203.354 81.7999C204.922 81.7999 206.154 82.2799 207.05 83.2399C207.978 84.1999 208.442 85.4799 208.442 87.0799C208.442 88.5839 208.01 89.8319 207.146 90.8239C206.282 91.8159 205.178 92.3119 203.834 92.3119C202.714 92.3119 201.77 92.0559 201.002 91.5439C200.266 90.9999 199.722 90.3759 199.37 89.6719C198.346 89.5439 197.594 89.6559 197.114 90.0079C196.666 90.3279 196.442 90.9839 196.442 91.9759V102.44C196.442 103.752 196.042 104.84 195.242 105.704C194.442 106.568 193.29 107 191.786 107Z" fill="black"/>
<path d="M217.198 107C215.79 107 214.67 106.584 213.838 105.752C213.006 104.888 212.59 103.832 212.59 102.584V74.7919C212.59 73.4479 212.99 72.3119 213.79 71.3839C214.622 70.4559 215.79 69.9919 217.294 69.9919C218.766 69.9919 219.87 70.4559 220.606 71.3839C221.374 72.3119 221.758 73.4639 221.758 74.8399V89.3839L221.902 89.4319C222.062 88.0879 222.478 86.8559 223.15 85.7359C223.822 84.5839 224.766 83.6559 225.982 82.9519C227.198 82.2479 228.686 81.8959 230.446 81.8959C232.814 81.8959 234.718 82.5519 236.158 83.8639C237.598 85.1759 238.318 86.9679 238.318 89.2399C238.318 90.8079 237.998 92.0559 237.358 92.9839C236.75 93.8799 235.918 94.5039 234.862 94.8559C233.806 95.2079 232.638 95.3679 231.358 95.3359V96.1519C234.206 96.1519 236.222 96.7279 237.406 97.8799C238.622 98.9999 239.23 100.424 239.23 102.152C239.23 103.752 238.75 104.984 237.79 105.848C236.83 106.712 235.678 107.128 234.334 107.096C232.862 107.064 231.646 106.632 230.686 105.8C229.726 104.968 228.926 103.848 228.286 102.44L226.222 98.0719C225.806 97.2079 225.262 96.5839 224.59 96.1999C223.95 95.8159 223.006 95.6719 221.758 95.7679V102.584C221.758 103.832 221.342 104.888 220.51 105.752C219.71 106.584 218.606 107 217.198 107ZM222.766 92.5039C222.766 92.9519 222.99 93.2879 223.438 93.5119C223.918 93.7039 224.894 93.7999 226.366 93.7999C227.806 93.7999 228.766 93.7039 229.246 93.5119C229.726 93.3199 229.966 92.9839 229.966 92.5039C229.966 92.0559 229.726 91.7199 229.246 91.4959C228.766 91.2719 227.822 91.1599 226.414 91.1599C224.91 91.1599 223.918 91.2719 223.438 91.4959C222.99 91.7199 222.766 92.0559 222.766 92.5039Z" fill="black"/>
<path d="M242.454 94.5199C242.454 91.9919 242.95 89.7679 243.942 87.8479C244.966 85.9279 246.406 84.4239 248.262 83.3359C250.15 82.2479 252.39 81.7039 254.982 81.7039C256.998 81.7039 258.806 82.0719 260.406 82.8079C262.038 83.5439 263.318 84.5359 264.246 85.7839C265.174 86.9999 265.638 88.3439 265.638 89.8159C265.638 91.3519 265.19 92.4399 264.294 93.0799C263.398 93.7199 262.07 94.0399 260.31 94.0399H250.23C250.23 94.8719 250.55 95.5599 251.19 96.1039C251.862 96.6479 252.982 96.9199 254.55 96.9199C255.35 96.9199 256.086 96.8399 256.758 96.6799C257.462 96.5199 258.166 96.3759 258.87 96.2479C259.606 96.0879 260.422 96.0079 261.318 96.0079C262.598 96.0079 263.654 96.4719 264.486 97.3999C265.318 98.2959 265.734 99.5439 265.734 101.144C265.734 103.032 264.758 104.504 262.806 105.56C260.886 106.616 258.358 107.144 255.222 107.144C253.014 107.144 250.934 106.712 248.982 105.848C247.062 104.984 245.494 103.624 244.278 101.768C243.062 99.8799 242.454 97.4639 242.454 94.5199ZM258.006 92.4559C258.486 92.4559 258.646 92.2319 258.486 91.7839C258.358 91.3359 257.974 90.8719 257.334 90.3919C256.694 89.9119 255.766 89.6719 254.55 89.6719C253.142 89.6719 252.086 89.9759 251.382 90.5839C250.71 91.1919 250.374 91.8159 250.374 92.4559H258.006Z" fill="black"/>
<path d="M283.294 107.144C281.598 107.144 280.062 106.76 278.686 105.992C277.342 105.224 276.286 104.136 275.518 102.728C274.75 101.288 274.366 99.6079 274.366 97.6879V89.2399L272.59 89.4799C271.63 89.6079 270.782 89.2719 270.046 88.4719C269.31 87.6719 268.942 86.6639 268.942 85.4479C268.942 84.2319 269.31 83.2399 270.046 82.4719C270.782 81.6719 271.63 81.3359 272.59 81.4639L274.366 81.7039L274.318 78.4399C274.286 77.1599 274.654 76.1519 275.422 75.4159C276.19 74.6479 277.31 74.2639 278.782 74.2639C280.254 74.2639 281.39 74.6479 282.19 75.4159C282.99 76.1519 283.358 77.1599 283.294 78.4399L283.198 81.7039L285.742 81.3679C287.47 81.1119 288.782 81.4319 289.678 82.3279C290.574 83.1919 291.022 84.2319 291.022 85.4479C291.022 86.6639 290.574 87.7199 289.678 88.6159C288.814 89.4799 287.55 89.7999 285.886 89.5759L283.198 89.2399V96.3919C283.198 96.8079 283.342 97.1919 283.63 97.5439C283.918 97.8639 284.27 97.9599 284.686 97.8319C285.166 97.7039 285.662 97.4319 286.174 97.0159C286.718 96.5999 287.406 96.3919 288.238 96.3919C289.486 96.3919 290.446 96.8399 291.118 97.7359C291.79 98.6319 292.126 99.7359 292.126 101.048C292.126 102.072 291.758 103.064 291.022 104.024C290.318 104.952 289.31 105.704 287.998 106.28C286.686 106.856 285.118 107.144 283.294 107.144Z" fill="black"/>
<path d="M314.794 107C312.426 107 310.57 106.36 309.226 105.08C307.914 103.8 307.258 102.008 307.258 99.7039C307.258 97.3999 308.026 95.7359 309.562 94.7119C311.098 93.6559 313.066 93.1279 315.466 93.1279C316.874 93.1279 318.154 93.2239 319.306 93.4159C320.458 93.6079 321.498 93.8799 322.426 94.2319H322.57V93.5119C322.57 92.7759 322.298 92.1999 321.754 91.7839C321.21 91.3359 320.522 91.1279 319.69 91.1599C318.89 91.1599 318.202 91.2079 317.626 91.3039C317.082 91.3999 316.394 91.5599 315.562 91.7839C314.026 92.1679 312.698 92.1359 311.578 91.6879C310.458 91.2399 309.69 90.3599 309.274 89.0479C308.89 87.6719 308.97 86.5199 309.514 85.5919C310.09 84.6639 310.954 83.9439 312.106 83.4319C313.098 82.9519 314.202 82.5519 315.418 82.2319C316.666 81.9119 318.01 81.7519 319.45 81.7519C323.642 81.7519 326.714 82.7759 328.666 84.8239C330.65 86.8399 331.642 90.2319 331.642 94.9999V102.44C331.642 103.752 331.242 104.84 330.442 105.704C329.642 106.568 328.538 107 327.13 107C325.594 107 324.442 106.568 323.674 105.704C322.938 104.84 322.57 103.784 322.57 102.536V101.432H321.61C321.61 102.264 321.45 103.112 321.13 103.976C320.842 104.84 320.218 105.56 319.258 106.136C318.33 106.712 316.842 107 314.794 107ZM315.274 96.4879C315.274 97.0319 315.466 97.4159 315.85 97.6399C316.266 97.8639 317.146 97.9759 318.49 97.9759C319.706 97.9759 320.554 97.8639 321.034 97.6399C321.514 97.4159 321.754 97.0319 321.754 96.4879C321.754 95.9759 321.514 95.6239 321.034 95.4319C320.554 95.2079 319.706 95.0959 318.49 95.0959C317.146 95.0959 316.266 95.2079 315.85 95.4319C315.466 95.6239 315.274 95.9759 315.274 96.4879Z" fill="black"/>
<path d="M348.854 107.144C347.158 107.144 345.622 106.76 344.246 105.992C342.902 105.224 341.846 104.136 341.078 102.728C340.31 101.288 339.926 99.6079 339.926 97.6879V89.2399L338.15 89.4799C337.19 89.6079 336.342 89.2719 335.606 88.4719C334.87 87.6719 334.502 86.6639 334.502 85.4479C334.502 84.2319 334.87 83.2399 335.606 82.4719C336.342 81.6719 337.19 81.3359 338.15 81.4639L339.926 81.7039L339.878 78.4399C339.846 77.1599 340.214 76.1519 340.982 75.4159C341.75 74.6479 342.87 74.2639 344.342 74.2639C345.814 74.2639 346.95 74.6479 347.75 75.4159C348.55 76.1519 348.918 77.1599 348.854 78.4399L348.758 81.7039L351.302 81.3679C353.03 81.1119 354.342 81.4319 355.238 82.3279C356.134 83.1919 356.582 84.2319 356.582 85.4479C356.582 86.6639 356.134 87.7199 355.238 88.6159C354.374 89.4799 353.11 89.7999 351.446 89.5759L348.758 89.2399V96.3919C348.758 96.8079 348.902 97.1919 349.19 97.5439C349.478 97.8639 349.83 97.9599 350.246 97.8319C350.726 97.7039 351.222 97.4319 351.734 97.0159C352.278 96.5999 352.966 96.3919 353.798 96.3919C355.046 96.3919 356.006 96.8399 356.678 97.7359C357.35 98.6319 357.686 99.7359 357.686 101.048C357.686 102.072 357.318 103.064 356.582 104.024C355.878 104.952 354.87 105.704 353.558 106.28C352.246 106.856 350.678 107.144 348.854 107.144Z" fill="black"/>
<path d="M380.353 107C377.985 107 376.129 106.36 374.785 105.08C373.473 103.8 372.817 102.008 372.817 99.7039C372.817 97.3999 373.585 95.7359 375.121 94.7119C376.657 93.6559 378.625 93.1279 381.025 93.1279C382.433 93.1279 383.713 93.2239 384.865 93.4159C386.017 93.6079 387.057 93.8799 387.985 94.2319H388.129V93.5119C388.129 92.7759 387.857 92.1999 387.313 91.7839C386.769 91.3359 386.081 91.1279 385.249 91.1599C384.449 91.1599 383.761 91.2079 383.185 91.3039C382.641 91.3999 381.953 91.5599 381.121 91.7839C379.585 92.1679 378.257 92.1359 377.137 91.6879C376.017 91.2399 375.249 90.3599 374.833 89.0479C374.449 87.6719 374.529 86.5199 375.073 85.5919C375.649 84.6639 376.513 83.9439 377.665 83.4319C378.657 82.9519 379.761 82.5519 380.977 82.2319C382.225 81.9119 383.569 81.7519 385.009 81.7519C389.201 81.7519 392.273 82.7759 394.225 84.8239C396.209 86.8399 397.201 90.2319 397.201 94.9999V102.44C397.201 103.752 396.801 104.84 396.001 105.704C395.201 106.568 394.097 107 392.689 107C391.153 107 390.001 106.568 389.233 105.704C388.497 104.84 388.129 103.784 388.129 102.536V101.432H387.169C387.169 102.264 387.009 103.112 386.689 103.976C386.401 104.84 385.777 105.56 384.817 106.136C383.889 106.712 382.401 107 380.353 107ZM380.833 96.4879C380.833 97.0319 381.025 97.4159 381.409 97.6399C381.825 97.8639 382.705 97.9759 384.049 97.9759C385.265 97.9759 386.113 97.8639 386.593 97.6399C387.073 97.4159 387.313 97.0319 387.313 96.4879C387.313 95.9759 387.073 95.6239 386.593 95.4319C386.113 95.2079 385.265 95.0959 384.049 95.0959C382.705 95.0959 381.825 95.2079 381.409 95.4319C381.025 95.6239 380.833 95.9759 380.833 96.4879Z" fill="black"/>
<path d="M417.672 82.7119C416.072 82.7119 414.76 82.2479 413.736 81.3199C412.744 80.3919 412.248 79.1119 412.248 77.4799C412.248 75.8799 412.696 74.5999 413.592 73.6399C414.52 72.6479 415.88 72.1519 417.672 72.1519H438.36C440.152 72.1519 441.496 72.6479 442.392 73.6399C443.32 74.5999 443.784 75.8799 443.784 77.4799C443.784 79.1119 443.272 80.3919 442.248 81.3199C441.256 82.2479 439.96 82.7119 438.36 82.7119C437.272 82.7119 436.392 82.5999 435.72 82.3759C435.08 82.1199 434.552 81.8319 434.136 81.5119C433.72 81.1599 433.32 80.8719 432.936 80.6479C432.552 80.3919 432.072 80.2639 431.496 80.2639L431.064 81.1279C431.192 81.4159 431.416 81.8319 431.736 82.3759C432.056 82.8879 432.36 83.6399 432.648 84.6319C432.936 85.5919 433.08 86.9039 433.08 88.5679V102.44C433.08 103.752 432.584 104.84 431.592 105.704C430.632 106.568 429.448 107 428.04 107C426.6 107 425.384 106.568 424.392 105.704C423.432 104.84 422.952 103.752 422.952 102.44V88.5679C422.952 86.9039 423.096 85.5919 423.384 84.6319C423.672 83.6399 423.976 82.8879 424.296 82.3759C424.648 81.8319 424.888 81.4159 425.016 81.1279L424.536 80.2639C423.96 80.2639 423.48 80.3919 423.096 80.6479C422.712 80.8719 422.312 81.1599 421.896 81.5119C421.48 81.8319 420.952 82.1199 420.312 82.3759C419.672 82.5999 418.792 82.7119 417.672 82.7119Z" fill="black"/>
<path d="M447.71 76.3279C447.71 74.9519 448.126 73.8479 448.958 73.0159C449.822 72.1519 451.006 71.7199 452.51 71.7199C454.11 71.7199 455.294 72.1359 456.062 72.9679C456.862 73.7999 457.262 74.9039 457.262 76.2799C457.262 77.6239 456.862 78.7119 456.062 79.5439C455.294 80.3439 454.11 80.7439 452.51 80.7439C450.942 80.7439 449.742 80.3439 448.91 79.5439C448.11 78.7119 447.71 77.6399 447.71 76.3279ZM452.51 107C451.006 107 449.886 106.584 449.15 105.752C448.414 104.92 448.046 103.88 448.046 102.632V86.2159C448.046 84.8399 448.414 83.7519 449.15 82.9519C449.886 82.1519 451.006 81.7519 452.51 81.7519C454.014 81.7519 455.134 82.1519 455.87 82.9519C456.638 83.7519 457.022 84.8079 457.022 86.1199V102.632C457.022 103.88 456.622 104.92 455.822 105.752C455.054 106.584 453.95 107 452.51 107Z" fill="black"/>
<path d="M466.58 107C465.14 107 463.988 106.584 463.124 105.752C462.292 104.888 461.876 103.832 461.876 102.584V86.6959C461.876 85.3519 462.276 84.2159 463.076 83.2879C463.908 82.3599 465.076 81.8959 466.58 81.8959C468.052 81.8959 469.156 82.3599 469.892 83.2879C470.628 84.2159 470.996 85.3839 470.996 86.7919V89.1919H471.86C471.86 86.4719 472.436 84.5839 473.588 83.5279C474.74 82.4399 476.164 81.8959 477.86 81.8959C480.036 81.8959 481.636 82.5679 482.66 83.9119C483.684 85.2559 484.196 87.0159 484.196 89.1919H485.06C485.06 87.3679 485.364 85.9279 485.972 84.8719C486.58 83.8159 487.348 83.0639 488.276 82.6159C489.236 82.1359 490.228 81.8959 491.252 81.8959C493.332 81.8959 494.852 82.3919 495.812 83.3839C496.804 84.3759 497.444 85.7039 497.732 87.3679C498.02 89.0319 498.164 90.9039 498.164 92.9839V102.584C498.164 103.832 497.732 104.888 496.868 105.752C496.036 106.584 494.916 107 493.508 107C492.1 107 490.964 106.584 490.1 105.752C489.236 104.888 488.804 103.832 488.804 102.584V94.0879C488.804 92.9359 488.66 92.0399 488.372 91.3999C488.084 90.7599 487.508 90.4399 486.644 90.4399C485.716 90.4399 485.108 90.7919 484.82 91.4959C484.564 92.1999 484.436 93.0959 484.436 94.1839V102.584C484.436 103.832 484.036 104.888 483.236 105.752C482.436 106.584 481.332 107 479.924 107C478.484 107 477.332 106.584 476.468 105.752C475.636 104.888 475.22 103.832 475.22 102.584V94.0879C475.22 92.9359 475.076 92.0399 474.788 91.3999C474.5 90.7599 473.94 90.4399 473.108 90.4399C472.18 90.4399 471.588 90.7919 471.332 91.4959C471.108 92.1999 470.996 93.0959 470.996 94.1839V102.584C470.996 103.832 470.612 104.888 469.844 105.752C469.076 106.584 467.988 107 466.58 107Z" fill="black"/>
<path d="M502.854 94.5199C502.854 91.9919 503.35 89.7679 504.342 87.8479C505.366 85.9279 506.806 84.4239 508.662 83.3359C510.55 82.2479 512.79 81.7039 515.382 81.7039C517.398 81.7039 519.206 82.0719 520.806 82.8079C522.438 83.5439 523.718 84.5359 524.646 85.7839C525.574 86.9999 526.038 88.3439 526.038 89.8159C526.038 91.3519 525.59 92.4399 524.694 93.0799C523.798 93.7199 522.47 94.0399 520.71 94.0399H510.63C510.63 94.8719 510.95 95.5599 511.59 96.1039C512.262 96.6479 513.382 96.9199 514.95 96.9199C515.75 96.9199 516.486 96.8399 517.158 96.6799C517.862 96.5199 518.566 96.3759 519.27 96.2479C520.006 96.0879 520.822 96.0079 521.718 96.0079C522.998 96.0079 524.054 96.4719 524.886 97.3999C525.718 98.2959 526.134 99.5439 526.134 101.144C526.134 103.032 525.158 104.504 523.206 105.56C521.286 106.616 518.758 107.144 515.622 107.144C513.414 107.144 511.334 106.712 509.382 105.848C507.462 104.984 505.894 103.624 504.678 101.768C503.462 99.8799 502.854 97.4639 502.854 94.5199ZM518.406 92.4559C518.886 92.4559 519.046 92.2319 518.886 91.7839C518.758 91.3359 518.374 90.8719 517.734 90.3919C517.094 89.9119 516.166 89.6719 514.95 89.6719C513.542 89.6719 512.486 89.9759 511.782 90.5839C511.11 91.1919 510.774 91.8159 510.774 92.4559H518.406Z" fill="black"/>
<path d="M536.616 107.912C534.728 107.912 533.256 107.416 532.2 106.424C531.144 105.4 530.616 104.056 530.616 102.392C530.616 100.696 531.16 99.3199 532.248 98.2639C533.336 97.2079 534.792 96.6799 536.616 96.6799C538.408 96.6799 539.832 97.2079 540.888 98.2639C541.976 99.2879 542.52 100.648 542.52 102.344C542.52 104.008 542.008 105.352 540.984 106.376C539.96 107.4 538.504 107.912 536.616 107.912Z" fill="black"/>
</svg>
