<svg width="43" height="38" viewBox="0 0 43 38" fill="none" xmlns="http://www.w3.org/2000/svg">
<path d="M31.5998 19.3597C31.833 22.0154 30.9673 24.7586 29.2747 26.7286C27.5822 28.6987 25.0883 29.8649 22.577 29.8602C20.0544 31.8355 17.1024 32.642 14.241 32.255C11.3796 31.8681 8.64139 30.2326 7.02757 27.6931C6.17504 26.3523 5.64689 24.8018 5.32188 23.2214C4.8006 20.6872 4.7931 18.009 5.50063 15.5265C6.20816 13.0441 7.65885 10.7714 9.68768 9.32645C11.7165 7.88147 14.3298 7.32259 16.7236 8.01355C18.1237 6.5148 20.0869 5.62604 22.0751 5.59086C24.0633 5.55635 26.0527 6.37608 27.5703 7.99563C25.8377 10.3499 25.8134 13.9495 27.5141 16.3297C27.9728 15.2743 29.0729 14.5734 30.1654 14.6404C31.2586 14.7075 32.2749 15.5385 32.6155 16.643C32.9562 17.7481 32.5999 19.0564 31.6005 19.3584L31.5998 19.3597Z" fill="#EC6930"/>
<path d="M19.7912 10.032C20.4819 10.5272 21.095 11.1438 21.5976 11.8494C21.6826 11.9682 21.7682 12.1069 21.7469 12.2543C21.7338 12.3452 21.6813 12.4235 21.6307 12.4978C21.3782 12.8662 21.1263 13.2346 20.8738 13.6037C21.1907 13.4755 21.5494 13.4656 22.0776 13.6156C22.1863 14.517 22.1295 15.4403 21.912 16.3191C22.6239 16.2275 23.3708 16.548 23.8233 17.1381C24.2508 15.4456 24.212 13.6229 23.7127 11.9529C23.4514 11.0787 23.0333 10.2059 22.3088 9.70611C21.5844 9.20631 20.4981 9.21693 19.7919 10.032H19.7912Z" fill="white"/>
<path d="M27.3347 8.4264C28.1435 9.06825 28.751 9.99153 29.041 11.019C28.7516 11.2931 28.4629 11.5666 28.1735 11.8407C28.6147 11.927 29.041 12.0976 29.5223 12.2536C29.6892 13.0786 29.6898 13.9408 29.5254 14.7665C30.0879 14.6756 30.6829 14.8409 31.1311 15.2126C31.2155 13.3786 30.8936 11.5261 30.2067 9.84152C29.9467 9.20365 29.6104 8.56048 29.0529 8.19608C28.4954 7.83168 27.6659 7.85757 27.3347 8.42707V8.4264Z" fill="white"/>
<path d="M19.8031 10.0008C20.6838 10.563 21.4076 11.398 21.8626 12.3757C21.5826 12.7109 21.3032 13.0461 21.0232 13.3806C21.3713 13.3103 21.7344 13.3302 22.0738 13.4371C22.2045 14.4307 22.157 15.4509 21.9345 16.4266C21.105 16.4485 20.3125 17.0299 20 17.8463C19.2456 16.6894 18.6131 15.4057 18.4218 14.0139C18.2305 12.622 18.5318 11.104 19.8031 10.0002V10.0008Z" fill="#3F234E"/>
<path d="M27.1878 8.39256C25.8065 10.7821 25.8752 14.0285 27.3565 16.3489C27.8191 15.4542 28.7122 14.8269 29.6679 14.7254C29.7073 13.8121 29.5954 12.8921 29.3404 12.0193C28.9191 11.9655 28.4978 11.9118 28.0766 11.858C28.4185 11.5507 28.7597 11.2427 29.1166 10.9327C28.9572 10.0274 28.3491 9.22556 27.1878 8.39256Z" fill="#3F234E"/>
<path d="M25.2465 18.7099C25.3352 19.205 25.3396 19.7175 25.259 20.2146C26.2846 19.9757 27.3597 19.9843 28.3822 20.2385C27.8359 19.7135 27.5147 18.9342 27.5216 18.1517C27.0172 18.5021 26.4228 18.7046 25.2465 18.7099Z" fill="#3F234E"/>
<path d="M30.1535 25.4091C29.9829 25.9063 29.6766 26.3503 29.2816 26.6729C31.4792 27.0492 33.5468 28.2367 35.0456 29.985C35.4994 29.8821 35.8669 29.4447 35.9119 28.9542C34.6687 27.1734 32.723 25.964 30.1535 25.4091Z" fill="#3F234E"/>
<path d="M10.4752 23.1298C10.4477 22.2775 10.589 21.42 10.8884 20.6288C10.9615 20.4356 11.0465 20.2418 11.1871 20.0971C11.3278 19.9524 11.5353 19.8648 11.7228 19.9239C11.9903 20.0075 12.1122 20.3347 12.1528 20.6275C12.2134 21.0662 12.1728 21.5195 12.0115 22.0246C11.7597 22.62 11.9809 23.3608 12.4353 23.7995C12.8903 24.2383 13.5304 24.4082 14.1441 24.3982C14.7585 24.3876 15.3586 24.2144 15.9517 24.0424C16.0642 24.4175 16.1773 24.7931 16.2898 25.1682C15.2092 25.5896 14.0398 25.8837 12.9097 25.6494C11.7797 25.4151 10.5215 24.5642 10.4752 23.1291V23.1298Z" fill="#3F234E"/>
<path d="M8.51139 29.3153C7.55947 30.0023 6.47443 30.4802 5.34375 30.7098C5.42063 31.3178 5.43438 31.9344 5.38563 32.5458C7.1407 32.7243 8.95891 31.9384 10.0977 30.5087C9.56893 30.2578 9.09329 29.8821 8.51139 29.3146V29.3153Z" fill="#3F234E"/>
<path d="M15.9517 7.62327C15.5954 5.35921 14.5685 3.21995 13.0528 1.58381C12.8884 1.40658 12.7141 1.22737 12.6291 0.996389C12.5441 0.76474 12.5766 0.462732 12.7697 0.322681C12.9972 0.157407 13.3078 0.288828 13.5403 0.446137C14.6048 1.16564 15.3167 2.34579 15.8598 3.55514C16.4036 4.7645 16.8167 6.04288 17.4649 7.19249C17.1299 7.33719 16.8511 7.62127 16.7005 7.97041C16.4805 7.76 16.178 7.64915 15.9511 7.6246L15.9517 7.62327Z" fill="#3F234E"/>
<path d="M15.1829 5.25899C12.7816 2.93653 9.24892 2.32189 6.03878 2.84692C5.2325 2.979 4.11183 3.40115 3.77181 4.18902C3.45368 4.92645 3.71806 5.60215 4.31934 6.10262C4.92061 6.60308 6.01003 6.86924 6.77194 6.93363C9.62706 7.17391 12.4384 6.21744 15.1823 5.25965L15.1829 5.25899Z" fill="#3BB454"/>
<path d="M24.8546 20.65C25.6302 20.2743 26.4865 20.0878 27.3391 20.1091C27.6853 20.1177 28.0428 20.1635 28.3403 20.3513C28.6379 20.5392 28.8622 20.8969 28.8154 21.2613C28.7716 21.6045 28.4979 21.8773 28.1903 21.9941C27.8828 22.1109 27.5466 22.0983 27.2222 22.0631C26.2734 21.9603 25.2852 21.6344 24.8546 20.65Z" fill="#E8639E"/>
<path d="M3.62244 31.2435C3.52993 30.3613 2.68427 29.6511 1.85486 29.7573C2.45239 31.0596 2.18363 32.5949 2.0955 34.0405C2.04862 34.8105 2.0605 35.6043 2.32738 36.3218C2.59427 37.0393 3.15992 37.6706 3.87495 37.8073C4.52185 37.9307 5.22875 37.5989 5.56439 36.9995C5.90003 36.3995 5.83128 35.5705 5.38938 35.0541C4.98624 34.5828 4.30559 34.4069 3.74369 34.6293C4.23746 34.3983 4.39747 33.615 4.0387 33.1876C4.44122 33.4378 4.98499 33.0967 5.15375 32.6353C5.32251 32.1734 5.22938 31.6563 5.13437 31.1711C5.07937 30.893 5.02249 30.6083 4.88436 30.3647C4.74623 30.1211 4.5081 29.9226 4.24059 29.918C3.96558 29.9133 3.71307 30.1204 3.59181 30.3832C3.47056 30.6454 3.46181 30.9527 3.62244 31.2441V31.2435Z" fill="#FE8E5D"/>
<path d="M34.1906 30.1821C33.7981 30.8014 34.2218 31.7931 34.9194 31.886C34.98 32.8743 35.6888 33.7465 36.5669 34.0803C37.4451 34.4142 38.4489 34.2536 39.267 33.7783C40.0852 33.3031 40.7302 32.5391 41.2115 31.6908C41.6078 30.9926 41.9078 30.212 41.9403 29.3976C41.9728 28.5832 41.7109 27.7309 41.134 27.1926C40.5571 26.6543 39.6489 26.5016 38.9995 26.9371C38.3501 27.3725 38.1114 28.4225 38.5883 29.0617C38.197 29.0325 37.7982 29.2383 37.5776 29.5821C37.6751 29.156 37.5151 28.6761 37.187 28.4099C36.8588 28.1438 36.3807 28.1059 36.0194 28.3177C36.2125 28.7962 36.11 29.3936 35.7694 29.7686C35.4294 30.1443 34.8712 30.2757 34.1893 30.1815L34.1906 30.1821Z" fill="#FE8E5D"/>
<path d="M2.8724 37.65C2.2555 36.8342 2.04862 35.7464 2.04299 34.7003C2.03737 33.6542 2.213 32.6174 2.27175 31.5733C2.29363 31.1864 2.29675 30.7848 2.15862 30.4257C2.02049 30.0666 1.70798 29.7573 1.34297 29.75C0.999826 29.7427 0.691063 30.0029 0.522931 30.3209C0.355424 30.6388 0.302297 31.0092 0.257295 31.3702C0.112289 32.5285 0.017285 33.7246 0.307922 34.8516C0.598559 35.9787 1.34859 37.0367 2.87178 37.6493L2.8724 37.65Z" fill="#F8C41F"/>
<path d="M21.1838 18.2327C20.7663 18.234 20.7669 18.9083 21.1838 18.9117C21.6013 18.9103 21.6007 18.236 21.1838 18.2327Z" fill="#3F234E"/>
<path d="M23.122 17.6764C22.7045 17.6777 22.7051 18.3521 23.122 18.3554C23.5395 18.3541 23.5389 17.6791 23.122 17.6764Z" fill="#3F234E"/>
<path d="M22.7551 19.5124C22.3376 19.5137 22.3382 20.1881 22.7551 20.1914C23.1726 20.19 23.172 19.5157 22.7551 19.5124Z" fill="#3F234E"/>
<path d="M29.1473 16.6191C28.7297 16.6204 28.7304 17.2948 29.1473 17.2981C29.5648 17.2968 29.5641 16.6224 29.1473 16.6191Z" fill="#3F234E"/>
<path d="M30.7711 15.8962C30.3535 15.8976 30.3542 16.5719 30.7711 16.5753C31.1886 16.5739 31.188 15.8996 30.7711 15.8962Z" fill="#3F234E"/>
<path d="M30.4567 17.5098C30.0392 17.5112 30.0398 18.1855 30.4567 18.1888C30.8742 18.1875 30.8736 17.5131 30.4567 17.5098Z" fill="#3F234E"/>
<path d="M28.4328 23.309C28.326 23.1855 28.2428 23.2625 28.1441 23.3004C27.7759 23.5108 27.3128 23.5944 26.9434 23.5008C26.7047 23.4318 26.604 23.8181 26.8428 23.8898C27.3197 23.9993 27.8403 23.9303 28.2622 23.6641C28.3735 23.5944 28.541 23.455 28.4328 23.309Z" fill="#3F234E"/>
<path d="M2.228 31.0039C2.16425 30.9415 2.068 30.9494 1.98737 30.9388C1.53798 30.9003 1.08796 30.8698 0.637939 30.8366C0.594187 30.8366 0.551685 30.8552 0.521058 30.8877C0.417304 30.9906 0.495433 31.1917 0.637939 31.1871C1.11046 31.2163 1.5836 31.2481 2.05675 31.2714C2.20613 31.2972 2.34489 31.1419 2.22863 31.0039H2.228Z" fill="white"/>
<path d="M2.21175 32.4097C2.158 32.3645 2.08049 32.3712 2.01549 32.3586C1.54985 32.328 1.30671 32.3041 0.892318 32.2218C0.701685 32.2106 0.499177 32.0672 0.315419 32.1369C0.180414 32.2145 0.20854 32.4475 0.358546 32.486C0.56793 32.5464 2.61927 32.9998 2.21175 32.4097Z" fill="white"/>
<path d="M2.01174 33.8719C1.4861 33.7325 0.956699 33.5639 0.426052 33.4624C0.239794 33.4777 0.221043 33.783 0.402301 33.8288C0.908572 33.9516 1.41172 34.089 1.91986 34.2038C2.13987 34.2728 2.2355 33.937 2.01112 33.8726L2.01174 33.8719Z" fill="white"/>
<path d="M2.36426 35.6163C2.34926 35.5505 2.29301 35.5101 2.23363 35.4941C1.78299 35.3866 1.32484 35.3169 0.870448 35.2313C0.650438 35.1629 0.554185 35.532 0.776069 35.5944C1.22859 35.6707 1.67986 35.755 2.13425 35.8147C2.25551 35.8492 2.39989 35.7636 2.36363 35.6163H2.36426Z" fill="white"/>
<path d="M2.50551 36.7612C2.48301 36.669 2.39613 36.6371 2.31488 36.6331C2.03549 36.6092 1.7536 36.6232 1.47359 36.6179C1.24608 36.6139 1.24608 36.9942 1.47359 36.9909C1.7236 36.9889 1.97361 36.9929 2.22362 36.9836C2.35488 36.9876 2.54864 36.9438 2.50551 36.7606V36.7612Z" fill="white"/>
<path d="M8.13075 13.9455C7.55948 14.4453 7.10196 15.1382 6.9482 15.9148C6.92007 16.1319 6.82069 16.5023 7.11508 16.5461C7.31509 16.5852 7.38884 16.3655 7.4301 16.2002C7.5701 15.8033 7.52947 15.9122 7.6326 15.6646C7.89761 15.0055 8.16138 14.815 8.61327 14.2906C8.75265 13.988 8.34576 13.6999 8.13075 13.9455Z" fill="white"/>
<path d="M7.33634 18.0395C7.23071 17.7235 6.75506 17.8291 6.76694 18.161C6.78756 18.4338 6.69694 18.9356 7.06445 18.9581C7.27321 18.9581 7.35259 18.7417 7.35071 18.5506C7.35071 18.3833 7.39196 18.1988 7.33696 18.0395H7.33634Z" fill="white"/>
<path d="M17.6024 29.3836C17.493 29.4414 16.8736 29.5921 17.0467 29.5489C16.6061 29.5921 16.5211 29.5768 16.1761 29.4825C16.0998 29.46 16.0148 29.4719 15.9467 29.5144C15.7229 29.6432 15.7698 30.0288 16.018 30.0919C16.5805 30.2611 17.2117 30.2419 17.7449 29.9764C17.8574 29.91 17.9974 29.8403 18.0343 29.6983C18.098 29.4208 17.8218 29.2615 17.603 29.3836H17.6024Z" fill="white"/>
<path d="M20.1856 22.8258C20.6194 23.1544 20.7606 23.8486 20.4938 24.3385C20.6638 24.7905 20.5263 25.3361 20.2069 25.6846C19.8869 26.033 19.4118 26.193 18.9543 26.1724C18.4968 26.1518 18.0562 25.9633 17.6711 25.6998C17.3443 26.0536 16.8674 26.2202 16.5342 25.9866C16.3367 25.8479 16.2292 25.6023 16.168 25.3593C16.0673 24.9584 16.0667 24.5376 16.0855 24.1234C16.0992 23.8148 16.1305 23.4876 16.308 23.2426C16.4855 22.9977 16.8611 22.8915 17.0849 23.0561C17.1955 22.5337 17.5043 22.0618 17.9262 21.7691C18.1187 21.6357 18.3524 21.5361 18.5768 21.5925C18.8006 21.649 18.9837 21.9158 18.8949 22.1415C19.0981 22.0041 19.3637 21.9762 19.5887 22.0678C19.8137 22.1601 19.9925 22.3698 20.185 22.8258H20.1856Z" fill="white"/>
<path d="M15.7948 32.3778C15.5292 32.3778 15.2642 32.3685 14.9985 32.3499C12.2209 32.1535 9.58769 30.885 7.77449 28.8699C5.24938 26.0636 4.19246 21.7386 4.94687 17.3001C5.48814 14.1161 6.87257 11.3867 8.84516 9.61451C11.0627 7.6226 14.1129 6.90442 16.4824 7.80181C17.9962 6.33825 20.0269 5.49395 22.0745 5.48134C22.0901 5.48134 22.1051 5.48134 22.1207 5.48134C24.1971 5.48134 26.2609 6.33493 27.7897 7.82837C27.8766 7.91333 27.8822 8.05603 27.8022 8.14829C27.7228 8.24055 27.5878 8.24652 27.5009 8.16156C26.0503 6.74446 24.0914 5.93402 22.1207 5.93402C22.1063 5.93402 22.092 5.93402 22.077 5.93402C20.0919 5.94597 18.1237 6.78163 16.6774 8.22728C16.618 8.28701 16.5317 8.30493 16.4549 8.27374C14.2098 7.35843 11.2621 8.03612 9.12079 9.95967C7.22321 11.6635 5.89003 14.2986 5.36626 17.3797C4.63561 21.6762 5.65127 25.8538 8.08262 28.5566C9.8227 30.4908 12.3541 31.7088 15.0267 31.8973C17.6224 32.0811 20.2363 31.3271 22.3851 29.7753C22.4207 29.7494 22.4645 29.7447 22.507 29.7361C24.9177 29.7693 27.3516 28.6608 29.0122 26.8017C30.6729 24.9425 31.5761 22.3054 31.428 19.748C31.4211 19.6232 31.5105 19.5157 31.6274 19.5084C31.7442 19.5051 31.8461 19.596 31.853 19.7201C32.008 22.401 31.0611 25.1642 29.321 27.113C27.5972 29.0425 25.0808 30.1888 22.5757 30.1888H22.5695C20.5738 31.6132 18.1968 32.3772 15.7948 32.3772V32.3778Z" fill="#3F234E"/>
<path d="M31.0198 20.198C30.9298 20.198 30.8461 20.1369 30.8173 20.0414C30.7811 19.9226 30.8423 19.7951 30.9548 19.7566C31.7592 19.4805 32.3674 18.6462 32.4336 17.7282C32.4986 16.8315 32.0455 15.9009 31.3067 15.4117C30.5848 14.9351 29.6079 14.8847 28.8166 15.2843C28.0453 15.6739 27.4478 16.485 27.2584 17.401C27.2334 17.5231 27.119 17.5994 27.0047 17.5735C26.8897 17.547 26.8172 17.4262 26.8422 17.3041C27.0597 16.2547 27.7459 15.3241 28.6335 14.8761C29.5529 14.4121 30.6904 14.4718 31.5317 15.0281C32.4024 15.6035 32.9349 16.7027 32.858 17.7634C32.7787 18.8592 32.0493 19.8562 31.0855 20.1874C31.0636 20.1947 31.0417 20.1987 31.0198 20.1987V20.198Z" fill="#3F234E"/>
<path d="M23.9514 22.1382C23.872 22.1382 23.7964 22.091 23.7595 22.0107C23.7083 21.8985 23.7526 21.7631 23.8583 21.7087C24.5127 21.3715 24.9589 20.5823 24.9958 19.6975C25.0358 18.7278 24.5808 17.7382 23.8351 17.176C23.0901 16.6138 22.0595 16.4837 21.2113 16.8434C20.3625 17.2032 19.7006 18.0514 19.525 19.0039C19.5025 19.1261 19.3906 19.2064 19.275 19.1825C19.1593 19.1586 19.0843 19.0398 19.1068 18.917C19.31 17.8178 20.0737 16.8388 21.0538 16.4233C22.0332 16.0078 23.222 16.1584 24.0827 16.8069C24.9427 17.4554 25.4683 18.5977 25.4221 19.7168C25.3783 20.7655 24.8383 21.7067 24.0452 22.1149C24.0152 22.1302 23.9833 22.1375 23.952 22.1375L23.9514 22.1382Z" fill="#3F234E"/>
<path d="M27.4703 22.3665C26.4653 22.3665 25.4758 21.9065 24.8033 21.1027C24.7252 21.0098 24.7333 20.8664 24.8208 20.7834C24.9089 20.6998 25.0433 20.7084 25.1215 20.802C25.7971 21.6091 26.8859 22.0339 27.8922 21.8819C28.261 21.8269 28.6441 21.6297 28.6685 21.3138C28.6866 21.0795 28.501 20.8458 28.321 20.6195L28.2516 20.5319C27.7659 19.9113 27.4559 19.144 27.3634 18.3442C26.6653 18.6249 25.939 18.8234 25.1996 18.9349C25.084 18.9522 24.9752 18.8665 24.9589 18.7424C24.9427 18.619 25.0233 18.5041 25.1402 18.4862C25.9396 18.3661 26.7234 18.1391 27.4703 17.8125C27.5347 17.7846 27.6072 17.7913 27.6659 17.8311C27.7247 17.8709 27.7609 17.9379 27.7647 18.0116C27.8003 18.8247 28.0897 19.6172 28.5797 20.2431L28.6472 20.3281C28.861 20.5963 29.1272 20.9308 29.0941 21.3516C29.0466 21.955 28.4497 22.2556 27.9528 22.33C27.7922 22.3539 27.6309 22.3658 27.4703 22.3658V22.3665Z" fill="#3F234E"/>
<path d="M28.4485 20.6719C28.4172 20.6719 28.3853 20.6646 28.356 20.6494C27.3953 20.1562 26.2665 20.0858 25.2583 20.4575C25.1471 20.4987 25.0258 20.4363 24.9871 20.3181C24.9483 20.2 25.0071 20.0712 25.1183 20.0301C26.2321 19.6192 27.4803 19.6969 28.5416 20.2418C28.6472 20.2962 28.6916 20.4317 28.6403 20.5438C28.6035 20.6248 28.5272 20.6713 28.4485 20.6713V20.6719Z" fill="#3F234E"/>
<path d="M25.9971 16.9277C25.9821 16.9277 25.9671 16.9264 25.9521 16.9224C25.8371 16.8959 25.764 16.7757 25.789 16.6536C25.8165 16.5169 25.834 16.4034 25.8271 16.2972C25.8202 16.1949 25.7896 16.1093 25.7402 16.0562C25.639 15.9467 25.4371 15.9374 25.2396 15.9407H25.2377C25.1208 15.9407 25.0258 15.8405 25.0246 15.7164C25.024 15.5916 25.1183 15.4894 25.2358 15.488C25.4502 15.4841 25.8077 15.4834 26.0446 15.7396C26.1646 15.8697 26.2384 16.0569 26.2521 16.266C26.2634 16.4345 26.2365 16.5978 26.2059 16.7492C26.1846 16.8554 26.0959 16.9277 25.9977 16.9277H25.9971Z" fill="#3F234E"/>
<path d="M27.3559 16.4193C27.2834 16.4193 27.2134 16.3801 27.1734 16.3098C26.1965 14.588 25.8146 12.4633 26.124 10.48C26.2615 9.59858 26.5084 8.96736 26.9009 8.49145C27.3515 7.94452 27.8503 7.68632 28.3847 7.72747C29.2554 7.79252 29.8498 8.61093 30.0648 8.96006C31.108 10.652 31.558 12.772 31.3011 14.7758C31.2855 14.9 31.1773 14.9862 31.0611 14.9696C30.9442 14.9524 30.8629 14.8389 30.8786 14.7148C31.1223 12.8171 30.6954 10.8099 29.7085 9.2083C29.3329 8.59898 28.8266 8.214 28.3553 8.17882C27.9622 8.14896 27.5803 8.35538 27.2215 8.79014C26.884 9.19967 26.669 9.75988 26.5446 10.5544C26.2509 12.4328 26.6134 14.4453 27.5384 16.0761C27.5991 16.183 27.5666 16.3224 27.4659 16.3868C27.4315 16.4087 27.3934 16.4193 27.3559 16.4193Z" fill="#3F234E"/>
<path d="M29.5385 7.14935C29.4766 7.14935 29.4154 7.12081 29.3729 7.06571C28.996 6.57388 28.2466 6.43714 27.7359 6.76703C27.6353 6.83207 27.5041 6.79823 27.4428 6.69136C27.3816 6.5845 27.4134 6.44511 27.5141 6.38073C28.2078 5.93137 29.1898 6.11058 29.7035 6.7803C29.7779 6.87721 29.7642 7.01992 29.6729 7.09824C29.6335 7.13276 29.586 7.14935 29.5385 7.14935Z" fill="#3F234E"/>
<path d="M19.8212 17.8019C19.7519 17.8019 19.6844 17.766 19.6431 17.7003C18.9612 16.6045 18.5043 15.338 18.323 14.0384C18.1849 13.0501 18.1687 11.633 18.8781 10.492C19.5006 9.49106 20.84 8.77553 22.0038 9.31118C22.517 9.54748 22.9695 10.0101 23.3864 10.7256C24.4221 12.5025 24.7221 14.7639 24.1895 16.7744C24.1577 16.8945 24.0402 16.9642 23.927 16.931C23.8139 16.8972 23.7477 16.7724 23.7795 16.6523C24.2802 14.7612 23.9983 12.6346 23.0245 10.9639C22.6551 10.3294 22.2657 9.92449 21.8351 9.72669C20.8763 9.28596 19.76 9.89595 19.2343 10.7409C18.5999 11.7617 18.6181 13.0614 18.7456 13.9714C18.9181 15.2059 19.3518 16.4087 20 17.4501C20.065 17.5543 20.0381 17.695 19.9394 17.7634C19.9031 17.7886 19.8625 17.8012 19.8219 17.8012L19.8212 17.8019Z" fill="#3F234E"/>
<path d="M29.5366 14.8455C29.5254 14.8455 29.5135 14.8449 29.5023 14.8429C29.386 14.8223 29.3073 14.7061 29.3266 14.5827C29.4466 13.8041 29.4035 12.9957 29.2029 12.2363L28.151 11.9788C28.0722 11.9595 28.0103 11.8938 27.9916 11.8102C27.9728 11.7266 28.001 11.639 28.0635 11.5839L28.8872 10.8604C28.6279 9.91188 27.9847 9.10011 27.1447 8.67199C27.0384 8.61756 26.994 8.48282 27.0447 8.36999C27.0953 8.25781 27.2234 8.21002 27.329 8.26445C28.3222 8.77089 29.0722 9.75191 29.3348 10.8889C29.3541 10.9732 29.3266 11.0622 29.2635 11.1172L28.6666 11.6409L29.4191 11.8255C29.4935 11.8434 29.5523 11.9025 29.5748 11.9795C29.8242 12.841 29.8842 13.7669 29.7466 14.6564C29.7298 14.7672 29.6391 14.8462 29.5366 14.8462V14.8455Z" fill="#3F234E"/>
<path d="M21.9732 16.5301C21.9507 16.5301 21.9269 16.5261 21.9044 16.5182C21.7932 16.4777 21.7338 16.3496 21.7713 16.2308C22.0226 15.4495 22.0757 14.6132 21.9276 13.8041C21.6044 13.7026 21.27 13.6594 20.9325 13.6733C20.8519 13.682 20.7738 13.6302 20.735 13.5525C20.6969 13.4749 20.7038 13.3813 20.7531 13.3116C21.0019 12.9585 21.2844 12.6326 21.5951 12.3405C21.1125 11.4305 20.3919 10.6599 19.5506 10.1588C19.4481 10.0977 19.4112 9.95967 19.4687 9.85081C19.5262 9.74196 19.6562 9.70346 19.7587 9.76386C20.7194 10.336 21.5344 11.2327 22.0526 12.2881C22.0988 12.3824 22.077 12.4985 22.0001 12.5662C21.7707 12.77 21.5569 12.9923 21.3607 13.2313C21.6382 13.2572 21.9119 13.3176 22.1782 13.4132C22.2488 13.4384 22.302 13.5008 22.3182 13.5784C22.5138 14.5077 22.4638 15.4754 22.1745 16.3761C22.1445 16.4697 22.0613 16.5295 21.9726 16.5295L21.9732 16.5301Z" fill="#3F234E"/>
<path d="M16.1217 11.4996C16.0242 11.4996 15.9367 11.4279 15.9142 11.323C15.7986 10.7801 15.9098 10.1833 16.2111 9.72735C16.5124 9.27202 17.003 8.95807 17.5237 8.8897C17.6399 8.87642 17.7468 8.96205 17.7612 9.08617C17.7755 9.21029 17.693 9.32313 17.5762 9.33906C17.173 9.39216 16.793 9.63509 16.5599 9.98754C16.3261 10.3407 16.2405 10.8026 16.3299 11.2228C16.3555 11.3449 16.2836 11.4657 16.1692 11.4936C16.1536 11.4976 16.1373 11.4989 16.1217 11.4989V11.4996Z" fill="#3F234E"/>
<path d="M13.8254 25.8332C12.2309 25.8332 11.1009 25.1967 10.7196 24.3597C10.1933 23.2048 10.2652 21.5813 10.9027 20.2232C11.0602 19.888 11.4659 19.7009 11.8078 19.8064C11.9378 19.8462 12.3566 20.0334 12.2872 20.7536C12.2766 20.8664 12.2534 21.0197 12.2265 21.1996C12.1247 21.8753 11.9547 23.0063 12.2597 23.4763C12.6591 24.0922 13.3753 24.3425 16.0092 23.9024C16.1248 23.8838 16.2342 23.9674 16.253 24.0909C16.2711 24.2144 16.1917 24.3305 16.0755 24.3498C13.5035 24.7792 12.4903 24.6292 11.9084 23.7331C11.5065 23.1139 11.6865 21.9184 11.8059 21.1279C11.8315 20.9587 11.8534 20.814 11.8634 20.7078C11.8778 20.5584 11.874 20.2982 11.6897 20.2418C11.544 20.1973 11.3509 20.285 11.2846 20.4263C10.7134 21.6443 10.6402 23.1464 11.104 24.1639C11.5778 25.204 13.5316 25.8067 15.9817 25.0168C16.0936 24.9803 16.213 25.048 16.2473 25.1675C16.2817 25.287 16.218 25.4138 16.1055 25.4496C15.2754 25.7171 14.5085 25.8339 13.826 25.8339L13.8254 25.8332Z" fill="#3F234E"/>
<path d="M17.1436 24.0391C17.0411 24.0391 16.9511 23.9608 16.9336 23.85C16.8549 23.3495 16.9424 22.8311 17.1799 22.3904C17.4174 21.9503 17.7943 21.6078 18.2412 21.4266C18.3506 21.3821 18.4968 21.335 18.6593 21.3496C18.8524 21.3682 19.0212 21.4837 19.1 21.651C19.1693 21.799 19.1587 21.9556 19.1381 22.089C19.1206 22.2052 19.0975 22.32 19.0681 22.4329C19.0925 22.4694 19.1068 22.5145 19.1068 22.563C19.1068 23.0063 18.9156 23.2811 18.5943 23.2991C18.5149 23.3024 18.4418 23.2612 18.4012 23.1902C18.3606 23.1192 18.3599 23.0302 18.3999 22.9579C18.5587 22.6711 18.6681 22.3466 18.7174 22.018C18.7224 21.9835 18.7362 21.8912 18.7181 21.8527C18.7081 21.8315 18.6699 21.8056 18.6199 21.801C18.5618 21.795 18.4912 21.8103 18.3931 21.8501C18.043 21.9915 17.7362 22.2709 17.5499 22.6161C17.3636 22.9612 17.2924 23.384 17.3543 23.7756C17.3736 23.8991 17.2955 24.0159 17.1793 24.0358C17.1674 24.0378 17.1555 24.0391 17.1436 24.0391Z" fill="#3F234E"/>
<path d="M19.3406 24.1964C19.2743 24.1964 19.2087 24.1632 19.1668 24.1015C19.0981 24 19.1206 23.8586 19.2162 23.7862C19.4718 23.5924 19.6456 23.376 19.7325 23.1437C19.8269 22.8895 19.8056 22.6054 19.6775 22.4202C19.5506 22.237 19.295 22.162 19.1306 22.2603C19.0281 22.3213 18.8981 22.2828 18.8406 22.174C18.7831 22.0651 18.8193 21.9271 18.9218 21.866C19.2737 21.6563 19.7662 21.785 20.0206 22.1521C20.2369 22.464 20.2781 22.9081 20.1287 23.3103C20.0112 23.6249 19.7881 23.909 19.4643 24.1546C19.4268 24.1832 19.3837 24.1971 19.3406 24.1971V24.1964Z" fill="#3F234E"/>
<path d="M19.7344 25.127C19.6544 25.127 19.5775 25.0786 19.5412 24.9969C19.4912 24.8841 19.5369 24.7487 19.6437 24.6962C19.9712 24.533 20.2194 24.227 20.2906 23.8971C20.3656 23.5513 20.2356 23.1729 19.9819 22.9964C19.8831 22.928 19.8556 22.788 19.92 22.6831C19.9844 22.5782 20.1169 22.549 20.215 22.6174C20.6194 22.8975 20.8213 23.4656 20.7063 23.998C20.605 24.4672 20.2756 24.8814 19.825 25.1058C19.7956 25.1204 19.765 25.127 19.7344 25.127Z" fill="#3F234E"/>
<path d="M19.1231 26.3576C18.9368 26.3576 18.7474 26.3304 18.5624 26.2753C18.0499 26.1213 17.568 25.7662 17.1693 25.2485C17.0949 25.1516 17.108 25.0089 17.1993 24.9299C17.2899 24.8509 17.4249 24.8648 17.4993 24.9617C17.7386 25.2724 18.1374 25.6773 18.6781 25.8392C19.1531 25.9819 19.6587 25.8903 19.9969 25.6009C20.3544 25.2956 20.5006 24.7573 20.3369 24.3498C20.2906 24.2349 20.3413 24.1015 20.4494 24.0531C20.5575 24.004 20.6825 24.0577 20.7288 24.1725C20.9675 24.7699 20.7719 25.5186 20.2638 25.954C19.9556 26.2176 19.5469 26.3576 19.1231 26.3576Z" fill="#3F234E"/>
<path d="M17.0692 26.3709C16.8892 26.3709 16.7092 26.3204 16.5561 26.2142C16.3205 26.0509 16.1467 25.7782 16.0248 25.3806C15.8836 24.9206 15.8342 24.4228 15.8817 23.9416C15.9042 23.7099 15.9598 23.3734 16.1786 23.1225C16.3936 22.8756 16.8055 22.7534 17.0967 22.9858C17.1911 23.0608 17.2099 23.2028 17.1392 23.3024C17.0686 23.4019 16.9355 23.4225 16.8411 23.3475C16.7474 23.2725 16.5786 23.3289 16.4911 23.4298C16.3905 23.5453 16.3317 23.7225 16.3055 23.9887C16.2642 24.4075 16.3073 24.8403 16.4298 25.2412C16.5205 25.5365 16.638 25.731 16.7892 25.8359C17.0161 25.9925 17.3768 25.9189 17.5318 25.6826C17.5993 25.5804 17.7318 25.5551 17.8286 25.6262C17.9249 25.6978 17.9487 25.8386 17.8811 25.9414C17.6993 26.2182 17.383 26.3709 17.0692 26.3709Z" fill="#3F234E"/>
<path d="M15.8748 8.0547C15.7723 8.0547 15.6817 7.97572 15.6648 7.86487C15.3267 5.67649 14.3566 3.57705 12.9341 1.95351L12.8953 1.90904C12.7141 1.70262 12.5259 1.48955 12.4203 1.20613C12.3028 0.890186 12.314 0.430207 12.6172 0.16869C12.8403 -0.0231341 13.1797 -0.0543298 13.4822 0.0903677C13.7235 0.20586 13.9072 0.402328 14.0747 0.594152C14.9642 1.61168 16.5961 3.83525 17.5393 7.2967C17.5718 7.41684 17.5068 7.54229 17.3936 7.5768C17.2811 7.61065 17.1624 7.54229 17.1299 7.42215C16.2111 4.05097 14.6254 1.88979 13.7622 0.901468C13.6191 0.737522 13.476 0.583535 13.3072 0.502558C13.1785 0.440829 12.9978 0.422244 12.8853 0.519152C12.7559 0.630662 12.7534 0.870273 12.8159 1.03887C12.8916 1.24264 13.0441 1.41588 13.206 1.59907L13.2453 1.6442C14.7248 3.33212 15.7329 5.5152 16.0848 7.79053C16.1036 7.91399 16.0254 8.03014 15.9092 8.05072C15.8973 8.05271 15.8861 8.05404 15.8742 8.05404L15.8748 8.0547Z" fill="#3F234E"/>
<path d="M7.93324 7.16262C7.14008 7.16262 6.35317 7.07833 5.56314 6.88385C5.155 6.78362 4.63123 6.62432 4.19496 6.28515C3.72931 5.9234 3.43993 5.39439 3.42055 4.8687C3.3993 4.28792 3.71056 3.67926 4.23309 3.28101C4.69935 2.92657 5.26625 2.76262 5.76002 2.64912C9.33517 1.82806 12.9328 2.79581 15.3823 5.23908C15.4379 5.29483 15.4617 5.3778 15.4436 5.45678C15.4254 5.53577 15.3692 5.59883 15.2954 5.6214C12.6447 6.43316 10.2633 7.16262 7.93324 7.16262ZM8.26138 2.81506C7.46634 2.81506 6.65756 2.906 5.85003 3.09118C5.37626 3.20004 4.88311 3.34274 4.48122 3.64873C4.0737 3.95936 3.82994 4.42067 3.84557 4.85144C3.85995 5.23974 4.08433 5.63932 4.44559 5.92008C4.81936 6.21081 5.29 6.35219 5.65877 6.44245C8.37388 7.11152 10.9596 6.46967 14.8079 5.29948C13.0422 3.68192 10.7165 2.81506 8.26075 2.81506H8.26138Z" fill="#3F234E"/>
<path d="M34.7875 30.3992C34.6869 30.3992 34.5868 30.3872 34.4887 30.3627C34.3743 30.3341 34.3031 30.2127 34.33 30.0912C34.3568 29.9691 34.4712 29.8947 34.5862 29.9226C34.8962 30.0003 35.2419 29.8934 35.4656 29.6525C35.6894 29.4109 35.7838 29.0425 35.7063 28.7139C35.6775 28.5931 35.7469 28.4697 35.8613 28.4398C35.9757 28.4099 36.0913 28.4829 36.12 28.6044C36.2332 29.0823 36.0957 29.6186 35.77 29.9697C35.515 30.2452 35.1512 30.3998 34.7881 30.3998L34.7875 30.3992Z" fill="#3F234E"/>
<path d="M35.0125 30.2074C34.9456 30.2074 34.8794 30.1735 34.8381 30.1111C33.5906 28.2241 31.3748 26.9915 29.3248 27.0499C29.2123 27.0439 29.1091 26.9543 29.1066 26.8295C29.1035 26.7047 29.1966 26.6005 29.3141 26.5972C31.4999 26.5355 33.8606 27.8457 35.1869 29.8509C35.2544 29.9531 35.2313 30.0945 35.135 30.1662C35.0975 30.1941 35.055 30.2074 35.0125 30.2074Z" fill="#3F234E"/>
<path d="M35.8938 29.5336C35.8207 29.5336 35.75 29.4938 35.71 29.4228C34.6306 27.4893 32.4843 26.0662 30.2417 25.7974C30.1248 25.7835 30.0404 25.6713 30.0542 25.5472C30.0673 25.4231 30.1735 25.3348 30.2898 25.3474C32.6605 25.6321 34.9319 27.1408 36.0769 29.1918C36.1369 29.2993 36.1032 29.4381 36.0019 29.5018C35.9682 29.523 35.9307 29.5336 35.8938 29.5336Z" fill="#3F234E"/>
<path d="M35.13 32.1336C34.8819 32.1336 34.6287 32.0486 34.4243 31.8807C34.0743 31.5939 33.8856 31.1054 33.9312 30.6056C33.9706 30.1708 34.1881 29.7374 34.5281 29.4168C34.6162 29.3332 34.7506 29.3418 34.8287 29.4354C34.9069 29.5283 34.8994 29.6717 34.8112 29.7547C34.5512 30.0009 34.385 30.3268 34.3556 30.6494C34.3243 30.9906 34.4537 31.3331 34.685 31.5222C34.9212 31.7161 35.2694 31.7346 35.495 31.5654C35.5913 31.493 35.7238 31.5169 35.7919 31.6192C35.86 31.7214 35.8375 31.8627 35.7413 31.9344C35.5644 32.0672 35.3488 32.1329 35.1306 32.1329L35.13 32.1336Z" fill="#3F234E"/>
<path d="M37.3588 30.1888C37.3201 30.1888 37.2801 30.1775 37.2451 30.1536C37.1457 30.0866 37.1163 29.9465 37.1795 29.8416C37.3988 29.4739 37.317 28.9296 37.0007 28.6528C36.6844 28.3761 36.1657 28.3953 35.8682 28.6947C35.7832 28.781 35.6481 28.777 35.5669 28.686C35.4856 28.5958 35.4894 28.4524 35.575 28.3661C36.0282 27.9101 36.7894 27.8822 37.272 28.3031C37.7545 28.7245 37.8745 29.523 37.5395 30.0832C37.4988 30.1516 37.4301 30.1881 37.3595 30.1881L37.3588 30.1888Z" fill="#3F234E"/>
<path d="M37.542 29.6711C37.4932 29.6711 37.4445 29.6538 37.4045 29.6173C37.3145 29.5363 37.3032 29.3936 37.3795 29.2987C37.6989 28.8971 38.2608 28.7564 38.7158 28.9622C38.8239 29.0113 38.8745 29.144 38.8283 29.2589C38.782 29.3737 38.657 29.4275 38.5489 29.3783C38.2664 29.2502 37.9032 29.3412 37.7051 29.5907C37.6632 29.6438 37.6026 29.6711 37.5426 29.6711H37.542Z" fill="#3F234E"/>
<path d="M37.5563 34.6186C37.2126 34.6186 36.8776 34.5602 36.5676 34.4408C35.6 34.0677 34.9137 33.0661 34.935 32.0592C34.9375 31.9344 35.0369 31.8342 35.1531 31.8382C35.2706 31.8409 35.3638 31.9444 35.3613 32.0699C35.3438 32.8883 35.9119 33.7067 36.7132 34.0153C37.4432 34.2967 38.347 34.1819 39.1295 33.7073C39.7902 33.3064 40.3946 32.652 40.9259 31.7605C41.3271 31.0875 41.574 30.4722 41.6796 29.8815C41.8734 28.8009 41.5671 28.0834 41.2759 27.6725C40.9384 27.1959 40.4346 26.8813 39.9289 26.8315C38.957 26.732 38.707 27.5623 38.6533 27.8179C38.5183 28.4604 38.7483 29.2675 39.3677 29.5051C39.4783 29.5476 39.5358 29.677 39.4958 29.7945C39.4558 29.912 39.3333 29.9731 39.2233 29.9306C38.352 29.596 38.0651 28.542 38.2376 27.7196C38.4258 26.8222 39.1033 26.2979 39.9683 26.3815C40.5915 26.4432 41.2071 26.8236 41.6165 27.401C42.1015 28.0854 42.2728 28.9967 42.0984 29.9671C41.9822 30.6149 41.7165 31.2813 41.2859 32.0035C40.7171 32.9579 40.0627 33.6635 39.3408 34.1009C38.7764 34.4428 38.1532 34.6193 37.557 34.6193L37.5563 34.6186Z" fill="#3F234E"/>
<path d="M3.60118 32.0612C3.58806 32.0612 3.57493 32.0599 3.56118 32.0572C3.44555 32.034 3.3693 31.9159 3.3918 31.7931C3.48243 31.2853 3.33305 30.735 3.00178 30.356C2.71302 30.0262 2.17862 29.7308 1.54672 29.8888C1.43172 29.9173 1.31734 29.8423 1.29046 29.7208C1.26296 29.5994 1.33421 29.4772 1.44859 29.4487C2.12675 29.2768 2.84115 29.5078 3.3143 30.0481C3.73556 30.5299 3.9262 31.2309 3.81057 31.8774C3.79119 31.9855 3.70181 32.0612 3.60118 32.0612Z" fill="#3F234E"/>
<path d="M3.08492 37.8703C3.07617 37.8703 3.06742 37.8704 3.05867 37.8684C2.19738 37.7562 0.673565 37.1887 0.146668 34.6492C-0.0502149 33.6993 -0.0902163 32.0698 0.288549 30.7364C0.376053 30.4284 0.497933 30.0779 0.736693 29.8098C1.01795 29.4945 1.43172 29.3664 1.76674 29.4898C2.15363 29.6326 2.39989 30.0487 2.47989 30.6945C2.58427 31.5329 2.49927 32.3765 2.41676 33.1929C2.37864 33.5706 2.33926 33.9609 2.32051 34.3419C2.27238 35.2904 2.39239 36.6046 3.23305 37.4814C3.29805 37.5498 3.31555 37.654 3.27555 37.7416C3.23992 37.8206 3.16492 37.8697 3.08367 37.8697L3.08492 37.8703ZM1.49797 29.8947C1.32734 29.8947 1.15421 30.0003 1.04671 30.1211C0.869199 30.3195 0.774195 30.597 0.697317 30.8671C0.341052 32.1223 0.377928 33.6569 0.563561 34.5516C0.926076 36.2999 1.79861 36.9989 2.52302 37.2723C1.94112 36.3364 1.85236 35.1855 1.89612 34.318C1.91612 33.925 1.95612 33.5288 1.99425 33.1451C2.07737 32.3187 2.1555 31.5388 2.05862 30.7543C2.0255 30.4894 1.92612 30.0281 1.62798 29.918C1.58548 29.9027 1.54235 29.8954 1.49797 29.8954V29.8947Z" fill="#3F234E"/>
<path d="M3.98995 34.4832C3.96807 34.4832 3.94557 34.4799 3.9237 34.472C3.81182 34.4335 3.75056 34.3053 3.78744 34.1865C3.90244 33.8115 3.83057 33.3675 3.60368 33.0548C3.5318 32.956 3.5493 32.8139 3.64243 32.7376C3.73494 32.6612 3.86932 32.6792 3.9412 32.7787C4.25621 33.2128 4.35246 33.8062 4.19246 34.3266C4.16308 34.4222 4.07995 34.4826 3.98995 34.4826V34.4832Z" fill="#3F234E"/>
<path d="M3.79994 37.9885C3.4593 37.9885 3.11241 37.9148 2.79052 37.7681C2.68239 37.719 2.63239 37.5856 2.67864 37.4708C2.72489 37.3559 2.85052 37.3028 2.95865 37.352C3.4818 37.5902 4.0812 37.5982 4.56185 37.3719C5.06687 37.1343 5.44063 36.6291 5.51501 36.0849C5.59126 35.5253 5.32813 34.9279 4.88936 34.6644C4.43997 34.3936 3.81557 34.4998 3.49743 34.9007C3.4218 34.9963 3.28679 35.0083 3.19741 34.9279C3.10741 34.8476 3.09616 34.7049 3.17179 34.6093C3.62306 34.0405 4.46997 33.8918 5.09999 34.2708C5.69439 34.6286 6.03878 35.4012 5.9369 36.1499C5.84253 36.8442 5.37063 37.4867 4.73498 37.7861C4.44809 37.9215 4.12745 37.9885 3.80056 37.9885H3.79994Z" fill="#3F234E"/>
<path d="M4.44997 33.6098C4.32309 33.6098 4.19433 33.5819 4.07058 33.5208C3.9637 33.4677 3.91807 33.333 3.96745 33.2201C4.01745 33.1066 4.14433 33.0588 4.25058 33.1106C4.53934 33.254 4.91499 33.0349 5.07187 32.7489C5.23125 32.4581 5.27062 32.0712 5.19187 31.5661C5.13437 31.1997 5.04374 30.9309 4.90686 30.7204C4.74748 30.4768 4.51684 30.3202 4.28871 30.3016C4.0537 30.2817 3.82244 30.4284 3.75931 30.6342C3.72244 30.753 3.60243 30.818 3.49055 30.7789C3.37867 30.7404 3.31742 30.6123 3.3543 30.4934C3.47805 30.0919 3.89307 29.8151 4.32184 29.8503C4.67623 29.8795 5.02624 30.1085 5.2575 30.4629C5.43188 30.7297 5.54501 31.057 5.61314 31.4917C5.70877 32.1057 5.65252 32.5916 5.44126 32.9772C5.24812 33.329 4.85623 33.6098 4.45059 33.6098H4.44997Z" fill="#3F234E"/>
<path d="M5.30501 31.0609C5.19563 31.0609 5.1025 30.9727 5.09312 30.8545C5.08312 30.7297 5.16938 30.6202 5.28688 30.6089C6.38755 30.506 7.46947 30.0474 8.33451 29.3173C8.42639 29.2396 8.56077 29.2555 8.6339 29.3538C8.70702 29.4513 8.69202 29.5941 8.59952 29.6717C7.67011 30.4563 6.50693 30.9494 5.32376 31.0596C5.31751 31.0596 5.31126 31.0603 5.30501 31.0603V31.0609Z" fill="#3F234E"/>
<path d="M5.79565 32.8073C5.68252 32.8073 5.57002 32.8033 5.45689 32.7953C5.33938 32.7873 5.25063 32.6798 5.25813 32.5544C5.26563 32.4296 5.36876 32.3413 5.48439 32.3433C7.0682 32.4542 8.68702 31.7194 9.70832 30.4284C9.78394 30.3328 9.91832 30.3209 10.0083 30.4005C10.0983 30.4808 10.1102 30.6235 10.0346 30.7191C9.00016 32.026 7.40134 32.8066 5.79503 32.8066L5.79565 32.8073Z" fill="#3F234E"/>
</svg>
